<svg width="110" height="110" viewBox="0 0 110 110" fill="none" xmlns="http://www.w3.org/2000/svg">
<g clip-path="url(#clip0)">
<path d="M100.833 0H9.16695C4.10637 0.00587464 0.00587464 4.10637 0 9.16695V75.1668C0.00587464 80.2265 4.10637 84.327 9.16695 84.3337H43.3691L38.969 99.0002H36.6669C33.6289 99.0002 31.1666 101.462 31.1666 104.5C31.1666 107.538 33.6289 110 36.6669 110H73.3331C76.3711 110 78.8334 107.538 78.8334 104.5C78.8334 101.462 76.3711 99.0002 73.3331 99.0002H71.031L66.6309 84.3337H100.833C105.894 84.327 109.994 80.2265 110 75.1668V9.16695C109.994 4.10637 105.894 0.00587464 100.833 0V0ZM9.16695 3.66661H100.833C103.869 3.66997 106.33 6.1306 106.333 9.16695V67.8336H3.66661V9.16695C3.66997 6.1306 6.1306 3.66997 9.16695 3.66661ZM75.1668 104.5C75.1659 105.512 74.3452 106.333 73.3331 106.333H36.6669C35.654 106.333 34.8332 105.513 34.8332 104.5C34.8332 103.488 35.654 102.667 36.6669 102.667H73.3331C74.3452 102.668 75.1659 103.488 75.1668 104.5ZM67.2033 99.0002H42.7967L47.1968 84.3337H62.8024L67.2033 99.0002ZM100.833 80.6663H56.8337V76.9997C56.8337 75.9875 56.0121 75.1668 55 75.1668C53.9879 75.1668 53.1663 75.9875 53.1663 76.9997V80.6663H9.16695C6.1306 80.6629 3.66997 78.2031 3.66661 75.1668V71.5002H106.333V75.1668C106.33 78.2031 103.869 80.6629 100.833 80.6663Z" fill="#FF753A"/>
<path d="M25.6666 60.5003H45.8334C48.8697 60.4969 51.3304 58.0363 51.3337 54.9999V16.5001C51.3304 13.4637 48.8697 11.0031 45.8334 10.9998H25.6666C23.6432 11.0023 22.0025 12.6421 22 14.6664V20.1667C22.0025 22.1909 23.6432 23.8308 25.6666 23.8333H38.5002V29.3336H31.1669C29.1427 29.3353 27.5029 30.976 27.5003 33.0003V38.4998C27.5029 40.524 29.1427 42.1638 31.1669 42.1664H38.5002V47.6667H25.6666C23.6432 47.6692 22.0025 49.3091 22 51.3333V56.8336C22.0025 58.857 23.6432 60.4977 25.6666 60.5003ZM25.6666 51.3333H38.5002C40.5244 51.3308 42.1643 49.6909 42.1668 47.6667V42.1664C42.1643 40.1421 40.5244 38.5023 38.5002 38.4998H31.1669V33.0003H38.5002C40.5244 32.9977 42.1643 31.357 42.1668 29.3336V23.8333C42.1643 21.8091 40.5244 20.1692 38.5002 20.1667H25.6666V14.6664H45.8334C46.8455 14.6672 47.6663 15.488 47.6671 16.5001V54.9999C47.6663 56.012 46.8455 56.832 45.8334 56.8336H25.6666L25.6649 51.3333H25.6666Z" fill="#FF753A"/>
<path d="M60.5006 60.5003H71.5004C79.5965 60.491 86.1576 53.9299 86.1669 45.833V25.6662C86.1576 17.5701 79.5965 11.009 71.5004 10.9998H60.5006C58.4764 11.0023 56.8357 12.6421 56.834 14.6664V56.8336C56.8357 58.857 58.4764 60.4977 60.5006 60.5003ZM60.5006 14.6664H71.5004C77.5723 14.6731 82.4935 19.5943 82.5003 25.6662V45.833C82.4935 51.9057 77.5723 56.8269 71.5004 56.8336H60.5006V14.6664Z" fill="#FF753A"/>
<path d="M76.9998 42.1664V29.3337C76.994 24.2731 72.8935 20.1726 67.8337 20.1667C66.8208 20.1667 66 20.9875 66 21.9996V49.4996C66 50.5126 66.8208 51.3334 67.8337 51.3334C72.8935 51.3275 76.994 47.227 76.9998 42.1664ZM73.3332 42.1664C73.3307 44.497 71.8629 46.5732 69.6666 47.352V24.1472C71.8629 24.9269 73.3307 27.0031 73.3332 29.3337V42.1664Z" fill="#FF753A"/>
</g>
<defs>
<clipPath id="clip0">
<rect width="110" height="110" fill="white"/>
</clipPath>
</defs>
</svg>
