<svg width="110" height="110" viewBox="0 0 110 110" fill="none" xmlns="http://www.w3.org/2000/svg">
<g clip-path="url(#clip0)">
<path d="M108.166 0H1.83372C0.82077 0 0 0.82077 0 1.83372V62.3332C0 63.3462 0.82077 64.1669 1.83372 64.1669H33.0003V108.166C33.0003 109.179 33.8211 110 34.8332 110H108.166C109.179 110 110 109.179 110 108.166V1.83372C110 0.82077 109.179 0 108.166 0V0ZM106.333 106.333H36.6669V62.3332C36.6669 61.3211 35.8462 60.5003 34.8332 60.5003H3.66661V3.66661H106.333V106.333Z" fill="#FF753A"/>
<path d="M9.16673 56.8338H34.833C35.846 56.8338 36.6667 56.0121 36.6667 55V44.0002H40.3333V55C40.3333 56.0121 41.1541 56.8338 42.1662 56.8338H65.9996V60.5004H42.1662C41.1541 60.5004 40.3333 61.3211 40.3333 62.3333V100.833C40.3333 101.846 41.1541 102.667 42.1662 102.667H69.5177C69.5873 102.685 69.6587 102.7 69.7309 102.71H69.7384L80.6249 102.667H100.833C101.846 102.667 102.667 101.846 102.667 100.833V62.3333C102.667 61.3211 101.846 60.5004 100.833 60.5004H93.4996V56.8338H100.833C101.846 56.8338 102.667 56.0121 102.667 55V9.16698C102.667 8.15402 101.846 7.33325 100.833 7.33325H42.1662C41.1541 7.33325 40.3333 8.15402 40.3333 9.16698V16.5002H36.6667V9.16698C36.6667 8.15402 35.846 7.33325 34.833 7.33325H9.16673C8.15378 7.33325 7.33301 8.15402 7.33301 9.16698V55C7.33301 56.0121 8.15378 56.8338 9.16673 56.8338ZM44 71.5002H51.3332V91.667H44V71.5002ZM71.4446 75.1593L89.7785 75.0862L89.8464 89.7972L80.6879 89.8333L71.5126 89.8702L71.4446 75.1593ZM82.5367 93.4931L89.8641 93.4646L89.8884 98.9633L82.5569 98.9926L82.5367 93.4931ZM71.531 93.5359L78.8701 93.5074L78.8903 99.0002H71.5545L71.531 93.5359ZM64.1667 18.3331H67.8333V25.6663H64.1667V18.3331ZM71.5 18.3331H82.4998V23.8334H71.5V18.3331ZM86.1664 18.3331H89.833V25.6663H86.1664V18.3331ZM91.6667 10.9999V14.6665H62.333V10.9999H91.6667ZM33.0001 10.9999V18.3331C33.0001 19.346 33.8209 20.1668 34.833 20.1668H41.285L55.4018 37.8117C56.0337 38.6022 57.1877 38.7315 57.9791 38.0987C58.7696 37.4668 58.898 36.3128 58.2661 35.5214L44 17.6894V10.9999H58.6664V16.5002C58.6664 17.5123 59.4872 18.3331 60.5001 18.3331V27.5C60.5001 28.5121 61.3209 29.3338 62.333 29.3338H69.6662C70.6792 29.3338 71.5 28.5121 71.5 27.5H82.4998C82.4998 28.5121 83.3206 29.3338 84.3335 29.3338H91.6667C92.6789 29.3338 93.4996 28.5121 93.4996 27.5V18.3331C94.5126 18.3331 95.3334 17.5123 95.3334 16.5002V10.9999H99V53.1663H92.2441L74.3844 40.6642C73.5544 40.1011 72.4265 40.3084 71.8516 41.13C71.2767 41.9516 71.4689 43.0829 72.2821 43.6687L89.833 55.9542V62.3333C89.833 63.3462 90.6538 64.167 91.6667 64.167H99V99.0002H93.5559L93.5214 91.6519C93.5214 91.6393 93.5282 91.6292 93.5282 91.6166C93.5282 91.604 93.5214 91.594 93.5214 91.5814L93.435 73.2374C93.43 72.2287 92.6109 71.4138 91.6021 71.4129H91.5946L69.5949 71.5002C69.1081 71.5019 68.6424 71.6974 68.3 72.0423C67.9576 72.3881 67.7662 72.8556 67.7687 73.3423L67.8879 99.0002H44V95.3336H53.1661C54.179 95.3336 54.9998 94.5128 54.9998 93.4999V69.6665C54.9998 68.6544 54.179 67.8336 53.1661 67.8336H44V64.167H67.8333C68.8455 64.167 69.6662 63.3462 69.6662 62.3333V55C69.6662 53.9879 68.8455 53.1663 67.8333 53.1663H44V42.1665C44 41.1544 43.1792 40.3336 42.1662 40.3336H34.833C33.8209 40.3336 33.0001 41.1544 33.0001 42.1665V53.1663H10.9996V49.4997H20.1666C21.1787 49.4997 21.9995 48.6789 21.9995 47.6668V16.5002C21.9995 15.4872 21.1787 14.6665 20.1666 14.6665H10.9996V10.9999H33.0001ZM10.9996 18.3331H18.3328V45.8331H10.9996V18.3331Z" fill="#FF753A"/>
</g>
<defs>
<clipPath id="clip0">
<rect width="110" height="110" fill="white"/>
</clipPath>
</defs>
</svg>
