<svg width="87" height="87" viewBox="0 0 87 87" fill="none" xmlns="http://www.w3.org/2000/svg">
<g clip-path="url(#clip0)">
<path d="M79.7498 0H7.25022C3.24776 0.00464631 0.00464631 3.24776 0 7.25022V59.4501C0.00464631 63.4519 3.24776 66.695 7.25022 66.7003H34.301L30.8209 78.3001H29.0002C26.5974 78.3001 24.65 80.2476 24.65 82.6497C24.65 85.0525 26.5974 87 29.0002 87H57.9998C60.4026 87 62.35 85.0525 62.35 82.6497C62.35 80.2476 60.4026 78.3001 57.9998 78.3001H56.1791L52.699 66.7003H79.7498C83.7522 66.695 86.9954 63.4519 87 59.4501V7.25022C86.9954 3.24776 83.7522 0.00464631 79.7498 0V0ZM7.25022 2.89996H79.7498C82.1513 2.90261 84.0974 4.84875 84.1 7.25022V53.6502H2.89996V7.25022C2.90261 4.84875 4.84875 2.90261 7.25022 2.89996ZM59.4501 82.6497C59.4494 83.4502 58.8003 84.0994 57.9998 84.1H29.0002C28.1991 84.1 27.5499 83.4509 27.5499 82.6497C27.5499 81.8492 28.1991 81.2001 29.0002 81.2001H57.9998C58.8003 81.2008 59.4494 81.8492 59.4501 82.6497ZM53.1517 78.3001H33.8483L37.3284 66.7003H49.671L53.1517 78.3001ZM79.7498 63.7997H44.9503V60.8997C44.9503 60.0992 44.3005 59.4501 43.5 59.4501C42.6995 59.4501 42.0497 60.0992 42.0497 60.8997V63.7997H7.25022C4.84875 63.797 2.90261 61.8516 2.89996 59.4501V56.5501H84.1V59.4501C84.0974 61.8516 82.1513 63.797 79.7498 63.7997Z" fill="#FF6666"/>
<path d="M20.2994 47.8503H36.2495C38.6509 47.8476 40.5971 45.9015 40.5997 43.5V13.0501C40.5971 10.6487 38.6509 8.70251 36.2495 8.69986H20.2994C18.6991 8.70185 17.4014 9.99883 17.3994 11.5998V15.9501C17.4014 17.5511 18.6991 18.848 20.2994 18.85H30.4495V23.2003H24.6496C23.0487 23.2016 21.7517 24.4993 21.7497 26.1003V30.4499C21.7517 32.0508 23.0487 33.3478 24.6496 33.3498H30.4495V37.7001H20.2994C18.6991 37.7021 17.4014 38.9991 17.3994 40.6V44.9503C17.4014 46.5506 18.6991 47.8483 20.2994 47.8503ZM20.2994 40.6H30.4495C32.0505 40.598 33.3475 39.3011 33.3495 37.7001V33.3498C33.3475 31.7488 32.0505 30.4519 30.4495 30.4499H24.6496V26.1003H30.4495C32.0505 26.0983 33.3475 24.8006 33.3495 23.2003V18.85C33.3475 17.2491 32.0505 15.9521 30.4495 15.9501H20.2994V11.5998H36.2495C37.0499 11.6005 37.6991 12.2496 37.6998 13.0501V43.5C37.6991 44.3005 37.0499 44.949 36.2495 44.9503H20.2994L20.298 40.6H20.2994Z" fill="#FF6666"/>
<path d="M47.8502 47.8503H56.55C62.9533 47.843 68.1425 42.6537 68.1498 36.2498V20.2997C68.1425 13.8964 62.9533 8.70716 56.55 8.69986H47.8502C46.2492 8.70185 44.9515 9.99883 44.9502 11.5998V44.9503C44.9515 46.5506 46.2492 47.8483 47.8502 47.8503ZM47.8502 11.5998H56.55C61.3523 11.6051 65.2446 15.4974 65.2499 20.2997V36.2498C65.2446 41.0527 61.3523 44.945 56.55 44.9503H47.8502V11.5998Z" fill="#FF6666"/>
<path d="M60.9001 33.3498V23.2003C60.8954 19.1978 57.6523 15.9547 53.6505 15.9501C52.8493 15.9501 52.2002 16.5992 52.2002 17.3997V39.1497C52.2002 39.9509 52.8493 40.6 53.6505 40.6C57.6523 40.5954 60.8954 37.3523 60.9001 33.3498ZM58.0001 33.3498C57.9981 35.1931 56.8372 36.8352 55.1002 37.4512V19.0983C56.8372 19.7149 57.9981 21.357 58.0001 23.2003V33.3498Z" fill="#FF6666"/>
</g>
<defs>
<clipPath id="clip0">
<rect width="87" height="87" fill="white"/>
</clipPath>
</defs>
</svg>
