<svg width="87" height="87" viewBox="0 0 87 87" fill="none" xmlns="http://www.w3.org/2000/svg">
<path d="M65.25 63.3279V61.1719C65.2464 57.9282 63.9563 54.8185 61.6627 52.5249C59.369 50.2312 56.2593 48.9411 53.0156 48.9375H52.8797C55.415 47.3512 57.5059 45.147 58.9563 42.5315C60.4067 39.9161 61.1691 36.9751 61.1719 33.9844V27.1875H62.5312C62.8918 27.1875 63.2375 27.0443 63.4925 26.7894C63.7474 26.5344 63.8906 26.1887 63.8906 25.8281V23.1094C63.8632 17.8786 61.8266 12.8583 58.202 9.08683C54.5774 5.31533 49.6419 3.08107 44.4163 2.84608C39.1907 2.61109 34.0746 4.39335 30.1261 7.82429C26.1775 11.2552 23.6986 16.0724 23.2018 21.2797L5.0392 3.11706C4.84909 2.92701 4.6069 2.79759 4.34325 2.74516C4.07959 2.69273 3.80631 2.71965 3.55795 2.82252C3.3096 2.92538 3.09731 3.09957 2.94794 3.32306C2.79856 3.54656 2.71881 3.80932 2.71875 4.07814V82.9219C2.71875 83.2824 2.86197 83.6282 3.1169 83.8831C3.37183 84.138 3.7176 84.2813 4.07812 84.2813H82.9219C83.1907 84.2812 83.4535 84.2015 83.6769 84.0521C83.9004 83.9027 84.0746 83.6904 84.1775 83.4421C84.2804 83.1937 84.3073 82.9204 84.2549 82.6568C84.2024 82.3931 84.073 82.1509 83.883 81.9608L65.25 63.3279ZM58.4531 33.9844C58.4531 37.9502 56.8777 41.7536 54.0735 44.5578C51.2692 47.3621 47.4658 48.9375 43.5 48.9375C39.5342 48.9375 35.7308 47.3621 32.9265 44.5578C30.1223 41.7536 28.5469 37.9502 28.5469 33.9844V26.8083L42.6395 22.1116C43.1978 21.9267 43.8008 21.9267 44.3591 22.1116L58.4531 26.8083V33.9844ZM21.75 61.1719V70.6875H16.3125V31.8284L33.4488 48.9647C30.3024 49.1026 27.3305 50.4485 25.1514 52.7222C22.9723 54.996 21.754 58.0225 21.75 61.1719ZM25.8281 23.1094C25.8281 18.4225 27.69 13.9276 31.0041 10.6135C34.3182 7.29937 38.8131 5.43752 43.5 5.43752C48.1869 5.43752 52.6818 7.29937 55.9959 10.6135C59.31 13.9276 61.1719 18.4225 61.1719 23.1094V24.4688H60.0314L45.2142 19.5302C44.0976 19.1604 42.8915 19.1604 41.775 19.5302L26.9686 24.4688H25.8281V23.1094ZM5.4375 76.125H9.51562V73.4063H5.4375V67.9688H9.51562V65.25H5.4375V59.8125H9.51562V57.0938H5.4375V51.6563H9.51562V48.9375H5.4375V43.5H9.51562V40.7813H5.4375V35.3438H9.51562V32.625H5.4375V27.1875H9.51562V24.4688H5.4375V19.0313H9.51562V16.3125H5.4375V7.35967L23.1094 25.0315V25.8281C23.1094 26.1887 23.2526 26.5344 23.5075 26.7894C23.7625 27.0443 24.1082 27.1875 24.4688 27.1875H25.8281V33.9844C25.8324 35.3265 25.9902 36.6638 26.2985 37.9701L15.9142 27.5858C15.7241 27.3958 15.4819 27.2663 15.2182 27.2139C14.9546 27.1615 14.6813 27.1884 14.433 27.2913C14.1846 27.3941 13.9723 27.5683 13.8229 27.7918C13.6736 28.0153 13.5938 28.2781 13.5938 28.5469V72.0469C13.5938 72.4074 13.737 72.7532 13.9919 73.0081C14.2468 73.263 14.5926 73.4063 14.9531 73.4063H21.75V81.5625H13.5938V77.4844H10.875V81.5625H5.4375V76.125ZM24.4688 81.5625V61.1719C24.4716 58.6491 25.4751 56.2304 27.259 54.4465C29.0429 52.6626 31.4616 51.6591 33.9844 51.6563H53.0156C55.5384 51.6591 57.9571 52.6626 59.741 54.4465C61.5249 56.2304 62.5284 58.6491 62.5312 61.1719V81.5625H24.4688ZM65.25 81.5625V67.1722L79.6403 81.5625H65.25Z" fill="#FF6666"/>
<path d="M84.1847 17.1676L78.7472 3.57383C78.6466 3.32113 78.4724 3.10444 78.2473 2.95179C78.0221 2.79913 77.7564 2.71753 77.4844 2.71753C77.2124 2.71753 76.9466 2.79913 76.7215 2.95179C76.4963 3.10444 76.3222 3.32113 76.2215 3.57383L70.784 17.1676C70.7201 17.328 70.6873 17.4992 70.6875 17.6719V58.4532C70.6875 60.2558 71.4036 61.9846 72.6783 63.2593C73.9529 64.5339 75.6817 65.25 77.4844 65.25C79.287 65.25 81.0158 64.5339 82.2905 63.2593C83.5652 61.9846 84.2813 60.2558 84.2813 58.4532V17.6719C84.2814 17.4992 84.2487 17.328 84.1847 17.1676ZM77.4844 7.73759L80.9141 16.3125H74.0547L77.4844 7.73759ZM76.125 19.0313V48.9375H73.4063V19.0313H76.125ZM81.5625 51.6563V54.375H73.4063V51.6563H81.5625ZM78.8438 48.9375V19.0313H81.5625V48.9375H78.8438ZM77.4844 62.5313C76.4028 62.5313 75.3655 62.1016 74.6007 61.3368C73.8359 60.572 73.4063 59.5347 73.4063 58.4532V57.0938H81.5625V58.4532C81.5625 59.5347 81.1328 60.572 80.368 61.3368C79.6033 62.1016 78.566 62.5313 77.4844 62.5313Z" fill="#FF6666"/>
<path d="M38.0625 38.0625H35.3438C35.3438 40.2257 36.2031 42.3002 37.7327 43.8298C39.2623 45.3594 41.3368 46.2188 43.5 46.2188C45.6632 46.2188 47.7377 45.3594 49.2673 43.8298C50.7969 42.3002 51.6562 40.2257 51.6562 38.0625H48.9375C48.9375 39.5046 48.3646 40.8877 47.3449 41.9074C46.3252 42.9271 44.9421 43.5 43.5 43.5C42.0579 43.5 40.6748 42.9271 39.6551 41.9074C38.6354 40.8877 38.0625 39.5046 38.0625 38.0625Z" fill="#FF6666"/>
<path d="M43.5 57.0938C41.618 57.0938 39.7782 57.6518 38.2134 58.6974C36.6486 59.743 35.4289 61.2291 34.7087 62.9679C33.9885 64.7067 33.8001 66.6199 34.1672 68.4658C34.5344 70.3116 35.4407 72.0072 36.7714 73.3379C38.1022 74.6687 39.7977 75.575 41.6436 75.9422C43.4894 76.3093 45.4027 76.1209 47.1415 75.4007C48.8802 74.6804 50.3664 73.4608 51.412 71.896C52.4575 70.3311 53.0156 68.4914 53.0156 66.6094C53.0128 64.0866 52.0093 61.6679 50.2254 59.884C48.4415 58.1001 46.0228 57.0966 43.5 57.0938ZM43.5 73.4062C42.1557 73.4062 40.8416 73.0076 39.7239 72.2608C38.6061 71.5139 37.7349 70.4524 37.2205 69.2104C36.7061 67.9685 36.5715 66.6018 36.8337 65.2834C37.096 63.9649 37.7433 62.7538 38.6939 61.8033C39.6444 60.8527 40.8555 60.2054 42.174 59.9431C43.4925 59.6808 44.8591 59.8154 46.1011 60.3299C47.343 60.8443 48.4045 61.7155 49.1514 62.8332C49.8982 63.951 50.2969 65.2651 50.2969 66.6094C50.2947 68.4114 49.5779 70.1389 48.3037 71.4131C47.0295 72.6873 45.302 73.4041 43.5 73.4062Z" fill="#FF6666"/>
</svg>
