<svg width="87" height="87" viewBox="0 0 87 87" fill="none" xmlns="http://www.w3.org/2000/svg">
<path d="M80.8828 31.2656H77.4844V25.8281C77.4821 23.6657 76.622 21.5924 75.0929 20.0633C73.5638 18.5342 71.4906 17.6742 69.3281 17.6719H50.2969C48.9503 17.6727 47.6248 18.0069 46.4388 18.6446C45.2528 19.2824 44.2432 20.2039 43.5 21.3269C42.7568 20.2039 41.7472 19.2824 40.5612 18.6446C39.3752 18.0069 38.0497 17.6727 36.7031 17.6719H17.6719C15.5094 17.6742 13.4362 18.5342 11.9071 20.0633C10.378 21.5924 9.51792 23.6657 9.51562 25.8281V31.2656H6.11719C4.85577 31.267 3.64641 31.7687 2.75445 32.6607C1.86249 33.5527 1.36077 34.762 1.35938 36.0234V62.5312C1.35938 62.8918 1.50259 63.2375 1.75753 63.4925C2.01246 63.7474 2.35822 63.8906 2.71875 63.8906H5.4375V67.9688C5.4375 68.3293 5.58072 68.675 5.83565 68.93C6.09058 69.1849 6.43635 69.3281 6.79688 69.3281H10.875C11.1781 69.3281 11.4726 69.2267 11.7115 69.0401C11.9504 68.8536 12.1201 68.5925 12.1936 68.2984L13.2964 63.8906H73.7036L74.8064 68.2984C74.8799 68.5925 75.0496 68.8536 75.2885 69.0401C75.5274 69.2267 75.8219 69.3281 76.125 69.3281H80.2031C80.5637 69.3281 80.9094 69.1849 81.1644 68.93C81.4193 68.675 81.5625 68.3293 81.5625 67.9688V63.8906H84.2812C84.6418 63.8906 84.9875 63.7474 85.2425 63.4925C85.4974 63.2375 85.6406 62.8918 85.6406 62.5312V36.0234C85.6392 34.762 85.1375 33.5527 84.2456 32.6607C83.3536 31.7687 82.1442 31.267 80.8828 31.2656ZM9.81299 66.6094H8.15625V63.8906H10.4927L9.81299 66.6094ZM14.9531 61.1719H4.07812V36.0234C4.07857 35.4828 4.29355 34.9644 4.67585 34.5821C5.05815 34.1998 5.57653 33.9848 6.11719 33.9844H12.9141C13.4547 33.9848 13.9731 34.1998 14.3554 34.5821C14.7377 34.9644 14.9527 35.4828 14.9531 36.0234V61.1719ZM12.9141 31.2656H12.2344V25.8281C12.2363 24.3866 12.8097 23.0046 13.8291 21.9853C14.8484 20.966 16.2303 20.3925 17.6719 20.3906H36.7031C38.1447 20.3925 39.5266 20.966 40.5459 21.9853C41.5653 23.0046 42.1387 24.3866 42.1406 25.8281V44.8594H23.1094C21.1017 44.8579 19.1646 45.6 17.6719 46.9426V36.0234C17.6705 34.762 17.1688 33.5527 16.2768 32.6607C15.3848 31.7687 14.1755 31.267 12.9141 31.2656ZM69.3281 61.1719H17.6719V53.0156C17.6738 51.5741 18.2472 50.1921 19.2666 49.1728C20.2859 48.1535 21.6678 47.58 23.1094 47.5781H63.8906C65.3322 47.58 66.7141 48.1535 67.7334 49.1728C68.7528 50.1921 69.3262 51.5741 69.3281 53.0156V61.1719ZM69.3281 36.0234V46.9426C67.8354 45.6 65.8983 44.8579 63.8906 44.8594H44.8594V25.8281C44.8613 24.3866 45.4347 23.0046 46.4541 21.9853C47.4734 20.966 48.8553 20.3925 50.2969 20.3906H69.3281C70.7697 20.3925 72.1516 20.966 73.1709 21.9853C74.1903 23.0046 74.7637 24.3866 74.7656 25.8281V31.2656H74.0859C72.8245 31.267 71.6152 31.7687 70.7232 32.6607C69.8312 33.5527 69.3295 34.762 69.3281 36.0234ZM78.8438 66.6094H77.187L76.5073 63.8906H78.8438V66.6094ZM82.9219 61.1719H72.0469V36.0234C72.0473 35.4828 72.2623 34.9644 72.6446 34.5821C73.0269 34.1998 73.5453 33.9848 74.0859 33.9844H80.8828C81.4235 33.9848 81.9418 34.1998 82.3242 34.5821C82.7065 34.9644 82.9214 35.4828 82.9219 36.0234V61.1719Z" fill="#FF6666"/>
<path d="M27.1875 28.5469C27.9383 28.5469 28.5469 27.9383 28.5469 27.1875C28.5469 26.4367 27.9383 25.8281 27.1875 25.8281C26.4367 25.8281 25.8281 26.4367 25.8281 27.1875C25.8281 27.9383 26.4367 28.5469 27.1875 28.5469Z" fill="#FF6666"/>
<path d="M27.1875 36.7031C27.9383 36.7031 28.5469 36.0945 28.5469 35.3438C28.5469 34.593 27.9383 33.9844 27.1875 33.9844C26.4367 33.9844 25.8281 34.593 25.8281 35.3438C25.8281 36.0945 26.4367 36.7031 27.1875 36.7031Z" fill="#FF6666"/>
<path d="M31.2656 32.625C32.0164 32.625 32.625 32.0164 32.625 31.2656C32.625 30.5149 32.0164 29.9062 31.2656 29.9062C30.5149 29.9062 29.9062 30.5149 29.9062 31.2656C29.9062 32.0164 30.5149 32.625 31.2656 32.625Z" fill="#FF6666"/>
<path d="M23.1094 32.625C23.8601 32.625 24.4688 32.0164 24.4688 31.2656C24.4688 30.5149 23.8601 29.9062 23.1094 29.9062C22.3586 29.9062 21.75 30.5149 21.75 31.2656C21.75 32.0164 22.3586 32.625 23.1094 32.625Z" fill="#FF6666"/>
<path d="M59.8125 28.5469C60.5633 28.5469 61.1719 27.9383 61.1719 27.1875C61.1719 26.4367 60.5633 25.8281 59.8125 25.8281C59.0617 25.8281 58.4531 26.4367 58.4531 27.1875C58.4531 27.9383 59.0617 28.5469 59.8125 28.5469Z" fill="#FF6666"/>
<path d="M59.8125 36.7031C60.5633 36.7031 61.1719 36.0945 61.1719 35.3438C61.1719 34.593 60.5633 33.9844 59.8125 33.9844C59.0617 33.9844 58.4531 34.593 58.4531 35.3438C58.4531 36.0945 59.0617 36.7031 59.8125 36.7031Z" fill="#FF6666"/>
<path d="M63.8906 32.625C64.6414 32.625 65.25 32.0164 65.25 31.2656C65.25 30.5149 64.6414 29.9062 63.8906 29.9062C63.1399 29.9062 62.5312 30.5149 62.5312 31.2656C62.5312 32.0164 63.1399 32.625 63.8906 32.625Z" fill="#FF6666"/>
<path d="M55.7344 32.625C56.4851 32.625 57.0938 32.0164 57.0938 31.2656C57.0938 30.5149 56.4851 29.9062 55.7344 29.9062C54.9836 29.9062 54.375 30.5149 54.375 31.2656C54.375 32.0164 54.9836 32.625 55.7344 32.625Z" fill="#FF6666"/>
</svg>
