<svg width="110" height="110" viewBox="0 0 110 110" fill="none" xmlns="http://www.w3.org/2000/svg">
<g clip-path="url(#clip0)">
<path d="M95.3336 6.44531C87.2366 6.45454 80.6763 13.0157 80.6663 21.1118V26.6121H5.50034C2.46399 26.6154 0.00335693 29.0761 0 32.1116V98.1123C0.00335693 101.148 2.46399 103.608 5.50034 103.612H95.3336C103.43 103.603 109.991 97.0414 110 88.9453V21.1118C109.991 13.0157 103.43 6.45454 95.3336 6.44531ZM95.3336 99.9451H5.50034C4.48822 99.9443 3.66829 99.1244 3.66661 98.1123V32.1116C3.66829 31.1003 4.48822 30.2795 5.50034 30.2787H80.6663V88.9453C80.6663 89.9574 81.4879 90.779 82.5 90.779C83.5121 90.779 84.3337 89.9574 84.3337 88.9453C84.3337 84.4965 87.0134 80.485 91.124 78.783C95.2345 77.0802 99.9653 78.021 103.112 81.1673C106.258 84.3127 107.199 89.0443 105.496 93.1549C103.793 97.2655 99.7823 99.9451 95.3336 99.9451ZM106.333 79.2765C103.56 76.1008 99.5499 74.2789 95.3336 74.2789C91.1172 74.2789 87.1066 76.1008 84.3337 79.2765V21.1118C84.3337 15.0365 89.2583 10.1119 95.3336 10.1119C101.409 10.1119 106.333 15.0365 106.333 21.1118V79.2765Z" fill="#FF753A"/>
<path d="M75.1666 33.9453H9.16673C8.15378 33.9453 7.33301 34.7661 7.33301 35.779V94.4456C7.33301 95.4578 8.15378 96.2785 9.16673 96.2785H75.1666C76.1787 96.2785 76.9995 95.4578 76.9995 94.4456V72.4451C76.9995 71.433 76.1787 70.6123 75.1666 70.6123H58.6664C57.6543 70.6123 56.8335 71.433 56.8335 72.4451C56.8335 73.4581 57.6543 74.2789 58.6664 74.2789H73.3328V92.6119H45.8328V74.2789H46.9071L53.704 81.075C54.4232 81.7699 55.5663 81.7598 56.2737 81.0523C56.9812 80.3457 56.9904 79.2018 56.2956 78.4826L48.9623 71.1494C48.6174 70.8078 48.1525 70.6148 47.6666 70.6123H44C43.9605 70.6123 43.9261 70.6316 43.8883 70.6349C43.7213 70.645 43.5577 70.6777 43.3999 70.7331C43.3428 70.7533 43.2858 70.7675 43.2312 70.7935C43.0365 70.88 42.8594 70.9991 42.7067 71.1469L42.7033 71.1494L35.3701 78.4834C34.6752 79.2027 34.6853 80.3457 35.3919 81.0532C36.0994 81.7598 37.2424 81.7699 37.9617 81.075L42.1662 76.8713V92.6119H10.9996V74.2789H33.0001C34.0122 74.2789 34.833 73.4581 34.833 72.4451C34.833 71.433 34.0122 70.6123 33.0001 70.6123H10.9996V59.6116H16.5C17.5121 59.6116 18.3328 58.7908 18.3328 57.7787V44.9451H23.8332C24.8453 44.9451 25.6661 44.1244 25.6661 43.1123V37.6119H31.1664V43.1123C31.1664 43.1467 31.1849 43.1752 31.1857 43.2096C31.2377 43.6855 31.4509 44.1302 31.7908 44.4676C31.8168 44.4903 31.8277 44.5222 31.8546 44.5432L41.0215 51.8764C41.8129 52.4865 42.9467 52.3489 43.5711 51.5692C44.1955 50.7887 44.0797 49.6524 43.3109 49.0137L34.833 42.2319V37.6119H49.4995V43.1123C49.4995 44.1244 50.3202 44.9451 51.3332 44.9451H73.3328V55.945H34.833V54.1121C34.833 53.0991 34.0122 52.2784 33.0001 52.2784C31.9872 52.2784 31.1664 53.0991 31.1664 54.1121V57.0192L24.3703 63.8161C23.8936 64.276 23.7023 64.9575 23.8701 65.5987C24.0379 66.2399 24.539 66.74 25.1793 66.9079C25.8205 67.0757 26.5019 66.8844 26.9627 66.4085L33.7588 59.6116H70.7404L66.5367 63.8161C66.06 64.276 65.8695 64.9575 66.0374 65.5987C66.2044 66.2399 66.7054 66.74 67.3466 66.9079C67.9878 67.0757 68.6692 66.8844 69.1291 66.4085L76.4623 59.0745L76.4657 59.0711C76.6126 58.9192 76.7317 58.7413 76.8182 58.5483C76.8417 58.4912 76.8618 58.4341 76.8794 58.3754C76.934 58.2193 76.9676 58.0565 76.9776 57.8912C76.9793 57.8517 76.9995 57.819 76.9995 57.7787V35.779C76.9995 34.7661 76.1787 33.9453 75.1666 33.9453ZM21.9995 41.2785H16.5C15.487 41.2785 14.6662 42.0993 14.6662 43.1123V55.945H10.9996V37.6119H21.9995V41.2785ZM53.1661 41.2785V37.6119H73.3328V41.2785H53.1661Z" fill="#FF753A"/>
</g>
<defs>
<clipPath id="clip0">
<rect width="110" height="110" fill="white"/>
</clipPath>
</defs>
</svg>
