<svg width="87" height="87" viewBox="0 0 87 87" fill="none" xmlns="http://www.w3.org/2000/svg">
<g clip-path="url(#clip0)">
<path d="M85.5497 0H1.45031C0.649155 0 0 0.649155 0 1.45031V49.2999C0 50.1011 0.649155 50.7502 1.45031 50.7502H26.1003V85.5497C26.1003 86.3508 26.7494 87 27.5499 87H85.5497C86.3508 87 87 86.3508 87 85.5497V1.45031C87 0.649155 86.3508 0 85.5497 0V0ZM84.1 84.1H29.0002V49.2999C29.0002 48.4994 28.3511 47.8503 27.5499 47.8503H2.89996V2.89996H84.1V84.1Z" fill="#0CA348"/>
<path d="M7.25109 44.9502H27.5508C28.3519 44.9502 29.0011 44.3004 29.0011 43.4999V34.8H31.901V43.4999C31.901 44.3004 32.5502 44.9502 33.3507 44.9502H52.2007V47.8502H33.3507C32.5502 47.8502 31.901 48.4993 31.901 49.2998V79.7497C31.901 80.5508 32.5502 81.2 33.3507 81.2H54.9832C55.0383 81.2146 55.0947 81.2259 55.1518 81.2338H55.1578L63.768 81.2H79.7507C80.5518 81.2 81.201 80.5508 81.201 79.7497V49.2998C81.201 48.4993 80.5518 47.8502 79.7507 47.8502H73.9507V44.9502H79.7507C80.5518 44.9502 81.201 44.3004 81.201 43.4999V7.25011C81.201 6.44896 80.5518 5.7998 79.7507 5.7998H33.3507C32.5502 5.7998 31.901 6.44896 31.901 7.25011V13.05H29.0011V7.25011C29.0011 6.44896 28.3519 5.7998 27.5508 5.7998H7.25109C6.44994 5.7998 5.80078 6.44896 5.80078 7.25011V43.4999C5.80078 44.3004 6.44994 44.9502 7.25109 44.9502ZM34.801 56.55H40.6009V72.5001H34.801V56.55ZM56.5072 59.444L71.0076 59.3863L71.0614 71.0213L63.8178 71.0498L56.561 71.079L56.5072 59.444ZM65.2801 73.9445L71.0753 73.9219L71.0946 78.2708L65.296 78.2941L65.2801 73.9445ZM56.5756 73.9783L62.3801 73.9557L62.3961 78.3H56.5942L56.5756 73.9783ZM50.7511 14.4997H53.6511V20.2996H50.7511V14.4997ZM56.551 14.4997H65.2509V18.8499H56.551V14.4997ZM68.1508 14.4997H71.0508V20.2996H68.1508V14.4997ZM72.5011 8.69976V11.5997H49.3008V8.69976H72.5011ZM26.1011 8.69976V14.4997C26.1011 15.3008 26.7503 15.95 27.5508 15.95H32.6537L43.8188 29.9055C44.3186 30.5307 45.2313 30.633 45.8572 30.1325C46.4825 29.6327 46.584 28.72 46.0842 28.0941L34.801 13.9906V8.69976H46.4008V13.05C46.4008 13.8505 47.05 14.4997 47.8511 14.4997V21.7499C47.8511 22.5504 48.5003 23.2002 49.3008 23.2002H55.1007C55.9019 23.2002 56.551 22.5504 56.551 21.7499H65.2509C65.2509 22.5504 65.9 23.2002 66.7012 23.2002H72.5011C73.3016 23.2002 73.9507 22.5504 73.9507 21.7499V14.4997C74.7519 14.4997 75.4011 13.8505 75.4011 13.05V8.69976H78.301V42.0496H72.9578L58.8323 32.1616C58.1759 31.7162 57.2838 31.8802 56.8291 32.53C56.3744 33.1798 56.5264 34.0745 57.1696 34.5378L71.0508 44.2546V49.2998C71.0508 50.101 71.6999 50.7501 72.5011 50.7501H78.301V78.3H73.9952L73.968 72.4882C73.968 72.4782 73.9733 72.4702 73.9733 72.4603C73.9733 72.4503 73.968 72.4424 73.968 72.4324L73.8996 57.924C73.8957 57.1262 73.2478 56.4817 72.45 56.481H72.444L55.0443 56.55C54.6593 56.5514 54.2909 56.706 54.0201 56.9788C53.7493 57.2523 53.5979 57.622 53.5999 58.007L53.6942 78.3H34.801V75.4001H42.0506C42.8517 75.4001 43.5009 74.7509 43.5009 73.9498V55.0997C43.5009 54.2992 42.8517 53.6501 42.0506 53.6501H34.801V50.7501H53.6511C54.4515 50.7501 55.1007 50.101 55.1007 49.2998V43.4999C55.1007 42.6994 54.4515 42.0496 53.6511 42.0496H34.801V33.3497C34.801 32.5492 34.1518 31.9001 33.3507 31.9001H27.5508C26.7503 31.9001 26.1011 32.5492 26.1011 33.3497V42.0496H8.70074V39.1496H15.951C16.7515 39.1496 17.4006 38.5005 17.4006 37.7V13.05C17.4006 12.2489 16.7515 11.5997 15.951 11.5997H8.70074V8.69976H26.1011ZM8.70074 14.4997H14.5006V36.2497H8.70074V14.4997Z" fill="#0CA348"/>
</g>
<defs>
<clipPath id="clip0">
<rect width="87" height="87" fill="white"/>
</clipPath>
</defs>
</svg>
