<svg width="87" height="87" viewBox="0 0 87 87" fill="none" xmlns="http://www.w3.org/2000/svg">
<g clip-path="url(#clip0)">
<path d="M85.5497 0H1.45031C0.649155 0 0 0.649155 0 1.45031V49.2999C0 50.1011 0.649155 50.7502 1.45031 50.7502H26.1003V85.5497C26.1003 86.3508 26.7494 87 27.5499 87H85.5497C86.3508 87 87 86.3508 87 85.5497V1.45031C87 0.649155 86.3508 0 85.5497 0V0ZM84.1 84.1H29.0002V49.2999C29.0002 48.4994 28.3511 47.8503 27.5499 47.8503H2.89996V2.89996H84.1V84.1Z" fill="#FF6666"/>
<path d="M7.25011 44.9504H27.5498C28.351 44.9504 29.0001 44.3006 29.0001 43.5001V34.8002H31.9001V43.5001C31.9001 44.3006 32.5492 44.9504 33.3497 44.9504H52.1998V47.8503H33.3497C32.5492 47.8503 31.9001 48.4995 31.9001 49.3V79.7499C31.9001 80.551 32.5492 81.2002 33.3497 81.2002H54.9822C55.0373 81.2148 55.0937 81.2261 55.1508 81.234H55.1568L63.7671 81.2002H79.7497C80.5508 81.2002 81.2 80.551 81.2 79.7499V49.3C81.2 48.4995 80.5508 47.8503 79.7497 47.8503H73.9498V44.9504H79.7497C80.5508 44.9504 81.2 44.3006 81.2 43.5001V7.2503C81.2 6.44914 80.5508 5.79999 79.7497 5.79999H33.3497C32.5492 5.79999 31.9001 6.44914 31.9001 7.2503V13.0502H29.0001V7.2503C29.0001 6.44914 28.351 5.79999 27.5498 5.79999H7.25011C6.44896 5.79999 5.7998 6.44914 5.7998 7.2503V43.5001C5.7998 44.3006 6.44896 44.9504 7.25011 44.9504ZM34.8 56.5502H40.5999V72.5003H34.8V56.5502ZM56.5062 59.4442L71.0067 59.3864L71.0604 71.0214L63.8168 71.05L56.56 71.0792L56.5062 59.4442ZM65.2791 73.9446L71.0744 73.9221L71.0936 78.271L65.295 78.2942L65.2791 73.9446ZM56.5746 73.9785L62.3791 73.9559L62.3951 78.3002H56.5932L56.5746 73.9785ZM50.7501 14.4999H53.6501V20.2998H50.7501V14.4999ZM56.55 14.4999H65.2499V18.8501H56.55V14.4999ZM68.1499 14.4999H71.0498V20.2998H68.1499V14.4999ZM72.5001 8.69994V11.5999H49.2998V8.69994H72.5001ZM26.1002 8.69994V14.4999C26.1002 15.301 26.7493 15.9502 27.5498 15.9502H32.6528L43.8178 29.9057C44.3176 30.5309 45.2303 30.6331 45.8562 30.1327C46.4815 29.6329 46.583 28.7202 46.0832 28.0943L34.8 13.9908V8.69994H46.3999V13.0502C46.3999 13.8507 47.049 14.4999 47.8502 14.4999V21.7501C47.8502 22.5506 48.4993 23.2004 49.2998 23.2004H55.0997C55.9009 23.2004 56.55 22.5506 56.55 21.7501H65.2499C65.2499 22.5506 65.8991 23.2004 66.7002 23.2004H72.5001C73.3006 23.2004 73.9498 22.5506 73.9498 21.7501V14.4999C74.7509 14.4999 75.4001 13.8507 75.4001 13.0502V8.69994H78.3V42.0498H72.9568L58.8314 32.1618C58.1749 31.7164 57.2828 31.8803 56.8281 32.5302C56.3735 33.18 56.5255 34.0747 57.1687 34.538L71.0498 44.2548V49.3C71.0498 50.1011 71.699 50.7503 72.5001 50.7503H78.3V78.3002H73.9942L73.967 72.4883C73.967 72.4784 73.9723 72.4704 73.9723 72.4605C73.9723 72.4505 73.967 72.4426 73.967 72.4326L73.8987 57.9242C73.8947 57.1264 73.2468 56.4818 72.449 56.4812H72.443L55.0433 56.5502C54.6583 56.5515 54.2899 56.7062 54.0191 56.979C53.7483 57.2525 53.597 57.6222 53.599 58.0072L53.6932 78.3002H34.8V75.4003H42.0496C42.8507 75.4003 43.4999 74.7511 43.4999 73.9499V55.0999C43.4999 54.2994 42.8507 53.6503 42.0496 53.6503H34.8V50.7503H53.6501C54.4506 50.7503 55.0997 50.1011 55.0997 49.3V43.5001C55.0997 42.6996 54.4506 42.0498 53.6501 42.0498H34.8V33.3499C34.8 32.5494 34.1509 31.9003 33.3497 31.9003H27.5498C26.7493 31.9003 26.1002 32.5494 26.1002 33.3499V42.0498H8.69976V39.1498H15.95C16.7505 39.1498 17.3996 38.5007 17.3996 37.7002V13.0502C17.3996 12.2491 16.7505 11.5999 15.95 11.5999H8.69976V8.69994H26.1002ZM8.69976 14.4999H14.4997V36.2499H8.69976V14.4999Z" fill="#FF6666"/>
</g>
<defs>
<clipPath id="clip0">
<rect width="87" height="87" fill="white"/>
</clipPath>
</defs>
</svg>
