<svg width="87" height="87" viewBox="0 0 87 87" fill="none" xmlns="http://www.w3.org/2000/svg">
<g clip-path="url(#clip0)">
<path d="M75.4002 5.09766C68.9962 5.10496 63.8077 10.2942 63.7997 16.6975V21.0477H4.35027C1.94879 21.0504 0.00265503 22.9965 0 25.3973V77.5979C0.00265503 79.9987 1.94879 81.9448 4.35027 81.9475H75.4002C81.8034 81.9402 86.9927 76.7509 87 70.3477V16.6975C86.9927 10.2942 81.8034 5.10496 75.4002 5.09766ZM75.4002 79.0475H4.35027C3.54977 79.0469 2.90128 78.3984 2.89996 77.5979V25.3973C2.90128 24.5975 3.54977 23.9484 4.35027 23.9477H63.7997V70.3477C63.7997 71.1481 64.4495 71.798 65.25 71.798C66.0505 71.798 66.7003 71.1481 66.7003 70.3477C66.7003 66.8291 68.8197 63.6563 72.0708 62.3102C75.3219 60.9635 79.0635 61.7075 81.5519 64.196C84.0403 66.6837 84.7844 70.426 83.4376 73.6771C82.0909 76.9281 78.9188 79.0475 75.4002 79.0475ZM84.1 62.7005C81.9063 60.1889 78.7349 58.7478 75.4002 58.7478C72.0655 58.7478 68.8934 60.1889 66.7003 62.7005V16.6975C66.7003 11.8925 70.5952 7.99761 75.4002 7.99761C80.2051 7.99761 84.1 11.8925 84.1 16.6975V62.7005Z" fill="#FF6666"/>
<path d="M59.45 26.8477H7.25011C6.44896 26.8477 5.7998 27.4968 5.7998 28.298V74.6979C5.7998 75.4984 6.44896 76.1476 7.25011 76.1476H59.45C60.2505 76.1476 60.8996 75.4984 60.8996 74.6979V57.2975C60.8996 56.497 60.2505 55.8479 59.45 55.8479H46.3998C45.5994 55.8479 44.9502 56.497 44.9502 57.2975C44.9502 58.0987 45.5994 58.7478 46.3998 58.7478H57.9997V73.2476H36.2497V58.7478H37.0993L42.4751 64.1229C43.0439 64.6725 43.9479 64.6646 44.5075 64.105C45.067 63.5461 45.0743 62.6414 44.5247 62.0726L38.7248 56.2727C38.452 56.0025 38.0843 55.8499 37.7 55.8479H34.8C34.7688 55.8479 34.7416 55.8631 34.7117 55.8658C34.5797 55.8738 34.4502 55.8997 34.3254 55.9435C34.2803 55.9594 34.2352 55.9707 34.192 55.9912C34.038 56.0596 33.898 56.1539 33.7772 56.2707L33.7745 56.2727L27.9746 62.0733C27.425 62.6421 27.433 63.5461 27.9919 64.1057C28.5514 64.6646 29.4555 64.6725 30.0243 64.1229L33.3497 60.7982V73.2476H8.69976V58.7478H26.1002C26.9007 58.7478 27.5498 58.0987 27.5498 57.2975C27.5498 56.497 26.9007 55.8479 26.1002 55.8479H8.69976V47.1473H13.05C13.8505 47.1473 14.4997 46.4982 14.4997 45.6977V35.5475H18.8499C19.6504 35.5475 20.2996 34.8984 20.2996 34.0979V29.7476H24.6498V34.0979C24.6498 34.1251 24.6645 34.1477 24.6651 34.1749C24.7063 34.5512 24.8749 34.903 25.1437 35.1698C25.1643 35.1878 25.1729 35.213 25.1941 35.2296L32.4444 41.0295C33.0703 41.512 33.967 41.4032 34.4608 40.7866C34.9547 40.1693 34.8631 39.2705 34.2551 38.7654L27.5498 33.4016V29.7476H39.1496V34.0979C39.1496 34.8984 39.7988 35.5475 40.5999 35.5475H57.9997V44.2474H27.5498V42.7977C27.5498 41.9966 26.9007 41.3474 26.1002 41.3474C25.299 41.3474 24.6498 41.9966 24.6498 42.7977V45.097L19.2747 50.4728C18.8977 50.8365 18.7464 51.3755 18.8791 51.8826C19.0119 52.3897 19.4082 52.7853 19.9146 52.9181C20.4217 53.0508 20.9607 52.8995 21.3251 52.5231L26.7002 47.1473H55.9493L52.6246 50.4728C52.2476 50.8365 52.0969 51.3755 52.2296 51.8826C52.3617 52.3897 52.758 52.7853 53.2651 52.9181C53.7722 53.0508 54.3112 52.8995 54.6749 52.5231L60.4748 46.7225L60.4775 46.7199C60.5936 46.5997 60.6879 46.459 60.7563 46.3064C60.7748 46.2612 60.7908 46.2161 60.8047 46.1696C60.8479 46.0462 60.8744 45.9174 60.8824 45.7866C60.8837 45.7554 60.8996 45.7296 60.8996 45.6977V28.298C60.8996 27.4968 60.2505 26.8477 59.45 26.8477ZM17.3996 32.6476H13.05C12.2489 32.6476 11.5997 33.2967 11.5997 34.0979V44.2474H8.69976V29.7476H17.3996V32.6476ZM42.0496 32.6476V29.7476H57.9997V32.6476H42.0496Z" fill="#FF6666"/>
</g>
<defs>
<clipPath id="clip0">
<rect width="87" height="87" fill="white"/>
</clipPath>
</defs>
</svg>
