<svg width="87" height="87" viewBox="0 0 87 87" fill="none" xmlns="http://www.w3.org/2000/svg">
<g clip-path="url(#clip0)">
<path d="M54.7151 0.000976562C48.6132 0.000976562 42.6698 1.71375 37.5275 4.95392C36.7335 5.45433 36.4955 6.50341 36.9959 7.29743C37.4961 8.09163 38.5455 8.32969 39.3394 7.82911C43.9386 4.93115 49.2555 3.39934 54.7153 3.39934C70.6431 3.39934 83.6014 16.3576 83.6014 32.2854C83.6014 48.2132 70.6431 61.1715 54.7153 61.1715C38.7875 61.1715 25.8292 48.2132 25.8292 32.2854C25.8292 26.8248 27.361 21.5079 30.2591 16.9097C30.7595 16.1157 30.5215 15.0664 29.7276 14.5662C28.9338 14.0656 27.8843 14.3037 27.3841 15.0977C24.1436 20.2394 22.4308 26.1827 22.4308 32.2854C22.4308 39.3506 24.7138 45.8916 28.5783 51.2133L25.6724 54.1193C23.7779 53.2168 21.4378 53.5478 19.8717 55.114L1.4901 73.4954C-0.497265 75.4829 -0.497435 78.7168 1.4901 80.7045L6.29607 85.5105C7.25627 86.4705 8.53644 86.9995 9.90054 86.9995C11.2648 86.9995 12.545 86.4707 13.505 85.5105L31.8863 67.1292C32.8463 66.169 33.3753 64.8888 33.3753 63.5246C33.3753 62.7506 33.2047 62.004 32.8822 61.3274L35.7871 58.4223C41.1087 62.2869 47.6497 64.5697 54.7149 64.5697C72.5168 64.5697 86.9994 50.0871 86.9994 32.2853C86.9994 14.4834 72.5169 0.000976562 54.7151 0.000976562ZM29.4834 64.7262L11.1022 83.1073C10.7839 83.4256 10.3573 83.6009 9.90071 83.6009C9.44414 83.6009 9.01748 83.4256 8.69922 83.1073L3.89325 78.3013C3.23074 77.639 3.23074 76.5609 3.89325 75.8983L22.2745 57.5169C22.6057 57.1858 23.0407 57.0201 23.4758 57.0201C23.911 57.0201 24.3461 57.1858 24.6773 57.5169L29.4834 62.3231C29.8017 62.6413 29.9769 63.068 29.9769 63.5244C29.9769 63.9808 29.8019 64.4078 29.4834 64.7262ZM30.6849 58.7186L28.282 56.3154L30.7281 53.8693C31.4868 54.7116 32.2888 55.5136 33.1311 56.2723L30.6849 58.7186Z" fill="#0CA348"/>
<path d="M74.8352 45.0964C75.6598 45.5434 76.6915 45.2371 77.1386 44.4121C79.1436 40.7122 80.2033 36.5188 80.2033 32.2856C80.2033 18.2316 68.7695 6.79785 54.7155 6.79785C40.6616 6.79785 29.2278 18.2316 29.2278 32.2856C29.2278 46.3395 40.6616 57.7733 54.7155 57.7733C58.949 57.7733 63.1424 56.7135 66.8421 54.7085C67.667 54.2613 67.9736 53.23 67.5263 52.4049C67.0793 51.5798 66.0474 51.2738 65.2227 51.7207C62.0186 53.4572 58.3852 54.375 54.7153 54.375C42.5353 54.375 32.626 44.4658 32.626 32.2856C32.626 20.1053 42.5353 10.1962 54.7153 10.1962C66.8956 10.1962 76.8047 20.1053 76.8047 32.2856C76.8047 35.9551 75.887 39.5885 74.1506 42.793C73.7035 43.6181 74.0101 44.6493 74.8352 45.0964Z" fill="#0CA348"/>
<path d="M33.0888 12.357C33.4968 12.357 33.9063 12.2111 34.2319 11.9149C34.9262 11.2836 34.9775 10.209 34.3463 9.51457C33.7148 8.8201 32.6402 8.76912 31.9459 9.40021L31.9451 9.40106C31.2508 10.0323 31.2 11.1066 31.8312 11.801C32.1665 12.1699 32.6268 12.357 33.0888 12.357Z" fill="#0CA348"/>
<path d="M71.5375 50.8055C71.9212 50.8055 72.3073 50.6762 72.6249 50.4116C73.3458 49.8108 73.4432 48.7393 72.8425 48.0184C72.2413 47.2973 71.17 47.2003 70.4494 47.8008L70.4483 47.8016C69.7274 48.4025 69.6305 49.4735 70.2312 50.1945C70.5673 50.5975 71.0507 50.8055 71.5375 50.8055Z" fill="#0CA348"/>
<path d="M72.5121 33.2674C72.9291 32.6788 72.9291 31.8913 72.5121 31.3027C68.8188 26.0897 61.9996 22.8514 54.7157 22.8514C47.4318 22.8514 40.6125 26.0899 36.9192 31.3027C36.5022 31.8913 36.5022 32.6788 36.9192 33.2674C40.6125 38.4804 47.4318 41.7185 54.7157 41.7185C61.9996 41.7185 68.8188 38.4804 72.5121 33.2674ZM60.7509 32.285C60.7509 35.6128 58.0434 38.3203 54.7156 38.3203C51.3879 38.3203 48.6804 35.6128 48.6804 32.285C48.6804 28.9573 51.3879 26.2498 54.7156 26.2498C58.0434 26.2498 60.7509 28.9573 60.7509 32.285ZM40.4576 32.2851C41.9856 30.4959 44.0014 29.0409 46.3119 28.0076C45.6552 29.2925 45.2822 30.7457 45.2822 32.285C45.2822 33.8244 45.6554 35.2776 46.3121 36.5627C44.0014 35.5294 41.9856 34.0744 40.4576 32.2851ZM63.1194 36.5625C63.7761 35.2774 64.1493 33.8244 64.1493 32.2848C64.1493 30.7455 63.7763 29.2924 63.1196 28.0074C65.4299 29.0407 67.4457 30.4957 68.9737 32.285C67.4455 34.0744 65.4299 35.5292 63.1194 36.5625Z" fill="#0CA348"/>
<path d="M54.7148 33.9847H54.7162C55.6545 33.9847 56.4147 33.2238 56.4147 32.2855C56.4147 31.3472 55.6533 30.5863 54.7148 30.5863C53.7764 30.5863 53.0156 31.3472 53.0156 32.2855C53.0156 33.2238 53.7765 33.9847 54.7148 33.9847Z" fill="#0CA348"/>
</g>
<defs>
<clipPath id="clip0">
<rect width="87" height="87" fill="white"/>
</clipPath>
</defs>
</svg>
