<svg width="87" height="87" viewBox="0 0 87 87" fill="none" xmlns="http://www.w3.org/2000/svg">
<g clip-path="url(#clip0)">
<path d="M67.7041 86.978C64.1733 86.978 60.0843 85.8615 55.3863 83.6321C50.1446 81.1453 47.6179 81.2323 45.9468 81.3121C44.6019 81.352 43.1991 81.4172 41.8143 80.0324C41.3286 79.5467 39.1209 76.9005 43.4601 72.5613C45.6242 70.3972 48.5931 69.7737 51.1704 69.7375L36.1412 54.7082C35.1443 53.715 34.5933 52.3846 34.5969 50.9745C34.6006 49.5643 35.1516 48.2412 36.1521 47.2443C37.1526 46.2475 38.4757 45.6928 39.8858 45.6892H39.8931C41.2996 45.6892 42.6227 46.2366 43.6196 47.2371L49.8618 53.483C50.1119 52.9827 50.4454 52.5223 50.8514 52.12C52.2833 50.6845 54.3351 50.2422 56.1512 50.8077C56.4049 50.09 56.8218 49.4121 57.3946 48.8393C59.3629 46.8673 62.5094 46.7803 64.5757 48.5675C64.8222 48.0672 65.1557 47.6032 65.5689 47.1899C67.6316 45.1273 70.9774 45.1237 73.0364 47.1791L82.8239 56.9666C88.9683 63.1073 88.2832 72.0103 81.1528 79.1443C81.1383 79.1588 81.1238 79.1733 81.1057 79.1915L77.0566 83.237C74.5336 85.731 71.4306 86.978 67.7041 86.978ZM46.9292 77.6653C48.9084 77.6653 51.9498 77.9916 56.9414 80.3551C67.7621 85.4917 72.1483 82.9977 74.5118 80.6668L78.5936 76.5851C78.6044 76.5706 78.6189 76.5597 78.6298 76.5488C82.9508 72.1771 85.9124 65.1772 80.2937 59.5585L70.4772 49.742C69.8356 49.1003 68.7843 49.1076 68.1354 49.7528C67.4902 50.3981 67.4829 51.4457 68.1209 52.091L68.1246 52.0946L70.5714 54.5414C70.9267 54.8967 71.1007 55.3607 71.1007 55.8247C71.1007 56.2887 70.9231 56.7527 70.5714 57.108C69.8646 57.8148 68.7154 57.8148 68.0086 57.108L62.2992 51.3986C61.6576 50.757 60.6063 50.7606 59.9574 51.4095C59.3086 52.0583 59.3049 53.106 59.9502 53.7512L64.0283 57.8293C64.3836 58.1846 64.5576 58.6486 64.5576 59.1126C64.5576 59.5766 64.3799 60.0406 64.0283 60.3958C63.3214 61.1027 62.1723 61.1027 61.4654 60.3958L55.7561 54.6865C55.1144 54.0448 54.0668 54.0521 53.4143 54.6973C53.0989 55.0127 52.9249 55.4332 52.9249 55.8755C52.9249 56.3141 53.0953 56.7273 53.4034 57.0355L57.4816 61.1136C57.8368 61.4688 58.0108 61.9328 58.0108 62.3968C58.0108 62.8608 57.8332 63.3248 57.4816 63.6801C56.7747 64.387 55.6256 64.387 54.9187 63.6801L41.0531 49.8181C40.7413 49.5063 40.3281 49.3323 39.8894 49.3323C39.4472 49.336 39.0303 49.51 38.7149 49.8253C38.3996 50.1407 38.2256 50.5576 38.2219 50.9998C38.2219 51.4385 38.3923 51.8517 38.7041 52.1635L57.4634 70.9228C58.0507 71.5065 58.1631 72.4163 57.7389 73.1268C57.3148 73.8373 56.4557 74.1708 55.6691 73.9425C55.6002 73.9243 49.1078 72.0611 46.0193 75.1423C44.6164 76.5488 44.4098 77.4116 44.4461 77.6037C44.5983 77.7088 44.6346 77.7487 45.8018 77.7016C46.1389 77.6798 46.5123 77.6653 46.9292 77.6653ZM66.8594 48.4732H66.8957H66.8594Z" fill="#0CA348"/>
<path d="M67.0625 29.0002H12.6875C5.69125 29.0002 0 23.309 0 16.3127C0 9.31649 5.69125 3.62524 12.6875 3.62524H67.0625C74.0587 3.62524 79.75 9.31649 79.75 16.3127C79.75 23.309 74.0587 29.0002 67.0625 29.0002ZM12.6875 7.25024C7.69225 7.25024 3.625 11.3139 3.625 16.3127C3.625 21.3116 7.69225 25.3752 12.6875 25.3752H67.0625C72.0577 25.3752 76.125 21.3116 76.125 16.3127C76.125 11.3139 72.0577 7.25024 67.0625 7.25024H12.6875Z" fill="#0CA348"/>
<path d="M16.3125 21.75C13.3146 21.75 10.875 19.3104 10.875 16.3125C10.875 13.3146 13.3146 10.875 16.3125 10.875C19.3104 10.875 21.75 13.3146 21.75 16.3125C21.75 19.3104 19.3104 21.75 16.3125 21.75ZM16.3125 14.5C15.312 14.5 14.5 15.3156 14.5 16.3125C14.5 17.3094 15.312 18.125 16.3125 18.125C17.313 18.125 18.125 17.3094 18.125 16.3125C18.125 15.3156 17.313 14.5 16.3125 14.5Z" fill="#0CA348"/>
<path d="M34.4375 21.75C31.4396 21.75 29 19.3104 29 16.3125C29 13.3146 31.4396 10.875 34.4375 10.875C37.4354 10.875 39.875 13.3146 39.875 16.3125C39.875 19.3104 37.4354 21.75 34.4375 21.75ZM34.4375 14.5C33.437 14.5 32.625 15.3156 32.625 16.3125C32.625 17.3094 33.437 18.125 34.4375 18.125C35.438 18.125 36.25 17.3094 36.25 16.3125C36.25 15.3156 35.438 14.5 34.4375 14.5Z" fill="#0CA348"/>
<path d="M27.1875 50.7502H12.6875C5.69125 50.7502 0 45.059 0 38.0627C0 34.677 1.3195 31.4942 3.71925 29.0945C6.119 26.6947 9.30538 25.3752 12.6875 25.3752H67.0625C74.0587 25.3752 79.75 31.0665 79.75 38.0627C79.75 39.0632 78.938 39.8752 77.9375 39.8752C76.937 39.8752 76.125 39.0632 76.125 38.0627C76.125 33.0639 72.0577 29.0002 67.0625 29.0002H12.6875C10.2732 29.0002 8.00037 29.9464 6.28212 31.6574C4.56388 33.3684 3.625 35.6485 3.625 38.0627C3.625 43.0616 7.69225 47.1252 12.6875 47.1252H27.1875C28.188 47.1252 29 47.9372 29 48.9377C29 49.9382 28.188 50.7502 27.1875 50.7502Z" fill="#0CA348"/>
<path d="M16.3125 43.5C13.3146 43.5 10.875 41.0604 10.875 38.0625C10.875 35.0646 13.3146 32.625 16.3125 32.625C19.3104 32.625 21.75 35.0646 21.75 38.0625C21.75 41.0604 19.3104 43.5 16.3125 43.5ZM16.3125 36.25C15.312 36.25 14.5 37.0656 14.5 38.0625C14.5 39.0594 15.312 39.875 16.3125 39.875C17.313 39.875 18.125 39.0594 18.125 38.0625C18.125 37.0656 17.313 36.25 16.3125 36.25Z" fill="#0CA348"/>
<path d="M34.4375 43.5C31.4396 43.5 29 41.0604 29 38.0625C29 35.0646 31.4396 32.625 34.4375 32.625C37.4354 32.625 39.875 35.0646 39.875 38.0625C39.875 41.0604 37.4354 43.5 34.4375 43.5ZM34.4375 36.25C33.437 36.25 32.625 37.0656 32.625 38.0625C32.625 39.0594 33.437 39.875 34.4375 39.875C35.438 39.875 36.25 39.0594 36.25 38.0625C36.25 37.0656 35.438 36.25 34.4375 36.25Z" fill="#0CA348"/>
<path d="M34.4375 72.5002H12.6875C5.69125 72.5002 0 66.809 0 59.8127C0 56.427 1.3195 53.2442 3.71925 50.8445C6.119 48.4447 9.30538 47.1252 12.6875 47.1252H27.1875C28.188 47.1252 29 47.9372 29 48.9377C29 49.9382 28.188 50.7502 27.1875 50.7502H12.6875C10.2732 50.7502 8.00037 51.6964 6.28212 53.4074C4.56388 55.1184 3.625 57.3985 3.625 59.8127C3.625 64.8116 7.69225 68.8752 12.6875 68.8752H34.4375C35.438 68.8752 36.25 69.6872 36.25 70.6877C36.25 71.6882 35.438 72.5002 34.4375 72.5002Z" fill="#0CA348"/>
<path d="M16.3125 65.25C13.3146 65.25 10.875 62.8104 10.875 59.8125C10.875 56.8146 13.3146 54.375 16.3125 54.375C19.3104 54.375 21.75 56.8146 21.75 59.8125C21.75 62.8104 19.3104 65.25 16.3125 65.25ZM16.3125 58C15.312 58 14.5 58.8156 14.5 59.8125C14.5 60.8094 15.312 61.625 16.3125 61.625C17.313 61.625 18.125 60.8094 18.125 59.8125C18.125 58.8156 17.313 58 16.3125 58Z" fill="#0CA348"/>
</g>
<defs>
<clipPath id="clip0">
<rect width="87" height="87" fill="white"/>
</clipPath>
</defs>
</svg>
