<?xml version="1.0" standalone="no"?>
<!DOCTYPE svg PUBLIC "-//W3C//DTD SVG 20010904//EN"
 "http://www.w3.org/TR/2001/REC-SVG-20010904/DTD/svg10.dtd">
<svg version="1.0" xmlns="http://www.w3.org/2000/svg"
 width="500.000000pt" height="500.000000pt" viewBox="0 0 500.000000 500.000000"
 preserveAspectRatio="xMidYMid meet">
<metadata>
Created by potrace 1.14, written by Peter Selinger 2001-2017
</metadata>
<g transform="translate(0.000000,500.000000) scale(0.100000,-0.100000)"
fill="#000000" stroke="none">
<path d="M1118 4315 c-2 -2 -27 -6 -55 -10 -161 -18 -364 -96 -505 -194 -281
-194 -475 -540 -534 -951 -31 -221 -23 -622 16 -769 5 -20 12 -52 15 -71 3
-19 19 -75 36 -123 174 -521 562 -798 1119 -800 340 -2 763 155 844 312 12 22
15 58 13 146 -2 104 -4 118 -22 131 -29 22 -65 11 -148 -44 -164 -109 -264
-154 -452 -199 -43 -10 -293 -11 -345 -1 -207 40 -364 133 -476 281 -82 109
-153 271 -180 410 -2 10 -5 26 -8 35 -3 9 -8 37 -11 62 -3 25 -9 59 -12 75 -9
51 -10 346 -2 430 39 390 183 682 408 828 88 58 146 81 276 114 11 3 74 7 140
9 232 6 408 -49 625 -196 94 -64 119 -77 138 -74 6 1 16 2 21 3 20 3 41 85 42
159 1 104 -13 152 -59 197 -93 92 -323 192 -506 221 -21 3 -48 8 -60 11 -24 6
-313 13 -318 8z"/>
<path d="M3148 4277 c-44 -12 -58 -24 -79 -72 -17 -38 -23 -67 -34 -165 -3
-25 -7 -61 -10 -80 -6 -50 -14 -127 -21 -185 -3 -27 -7 -61 -9 -75 -2 -14 -7
-50 -10 -80 -3 -30 -10 -84 -16 -120 -6 -36 -12 -78 -14 -95 -4 -38 -24 -182
-30 -217 -3 -16 -7 -40 -10 -55 -2 -16 -7 -53 -11 -83 -3 -30 -8 -58 -10 -61
-2 -3 -8 -34 -13 -70 -6 -35 -13 -75 -16 -89 -6 -30 -35 -175 -41 -210 -31
-162 -112 -419 -175 -557 -35 -76 -118 -212 -164 -269 l-34 -41 -73 -1 c-120
-1 -125 -1 -149 -21 l-24 -19 -1 -492 c-1 -446 0 -493 16 -512 14 -18 30 -21
123 -24 110 -4 161 6 176 35 5 9 8 172 7 364 -1 302 1 347 14 348 84 4 2119 1
2126 -3 5 -4 9 -156 9 -358 l0 -353 24 -16 c49 -32 270 -22 293 13 4 6 6 232
5 503 -2 491 -2 493 -24 514 -20 21 -31 22 -182 22 l-161 0 -1 1206 c0 663 -2
1215 -4 1225 -2 11 -12 31 -23 45 -41 55 -22 54 -749 55 -370 1 -688 -3 -705
-7z m1102 -1423 l0 -1102 -695 0 c-503 1 -693 4 -688 12 4 6 24 35 46 64 64
88 175 318 192 400 2 9 13 47 25 85 19 60 81 323 95 402 2 17 7 39 9 50 2 11
7 40 11 65 9 56 13 78 20 110 9 42 13 63 19 115 12 87 17 120 21 135 3 8 7 38
10 65 3 28 12 91 20 140 8 50 17 115 20 145 3 30 8 67 11 81 2 14 6 51 9 81 3
30 7 63 9 74 2 10 7 53 11 94 4 41 11 78 17 81 5 3 196 6 424 6 l414 0 0
-1103z"/>
</g>
</svg>
