<svg width="87" height="87" viewBox="0 0 87 87" fill="none" xmlns="http://www.w3.org/2000/svg">
<g clip-path="url(#clip0)">
<path d="M78.2483 0H51.8885C48.131 0 45.0737 3.0566 45.0737 6.8148V31.2981C45.0737 35.0557 48.131 38.1123 51.8885 38.1123H78.2483C82.0059 38.1123 85.0631 35.0557 85.0631 31.2981V6.8148C85.0631 3.0566 82.0059 0 78.2483 0ZM81.6647 31.2975C81.6647 33.1812 80.1321 34.7138 78.2483 34.7138H51.8885C50.0048 34.7138 48.4722 33.1812 48.4722 31.2975V6.8148C48.4722 4.93105 50.0048 3.39844 51.8885 3.39844H78.2483C80.1321 3.39844 81.6647 4.93105 81.6647 6.8148V31.2975Z" fill="#0CA348"/>
<path d="M65.068 7.03772C58.4411 7.03772 53.05 12.4294 53.05 19.0564C53.05 25.6833 58.4411 31.0744 65.068 31.0744C71.695 31.0744 77.0867 25.6833 77.0867 19.0564C77.0867 12.4294 71.695 7.03772 65.068 7.03772ZM65.068 27.6759C60.3155 27.6759 56.4485 23.8089 56.4485 19.0557C56.4485 14.3032 60.3155 10.4362 65.068 10.4362C69.8212 10.4362 73.6883 14.3032 73.6883 19.0557C73.6883 23.8089 69.8212 27.6759 65.068 27.6759Z" fill="#0CA348"/>
<path d="M61.1169 15.6112C60.1784 15.6112 59.4177 16.3719 59.4177 17.3104V20.8025C59.4177 21.741 60.1784 22.5017 61.1169 22.5017C62.0555 22.5017 62.8162 21.741 62.8162 20.8025V17.3104C62.8162 16.3719 62.0555 15.6112 61.1169 15.6112Z" fill="#0CA348"/>
<path d="M69.02 15.6112C68.0815 15.6112 67.3208 16.3719 67.3208 17.3104V20.8025C67.3208 21.741 68.0815 22.5017 69.02 22.5017C69.9586 22.5017 70.7192 21.741 70.7192 20.8025V17.3104C70.7192 16.3719 69.9586 15.6112 69.02 15.6112Z" fill="#0CA348"/>
<path d="M72.6111 83.6018H51.9569C49.2581 83.6018 47.0624 81.4061 47.0624 78.7072V64.9396C47.0624 60.9278 43.7987 57.6641 39.7869 57.6641C35.7752 57.6641 32.5115 60.9278 32.5115 64.9396V78.6634C32.5115 81.3861 30.2959 83.6018 27.5731 83.6018C24.8497 83.6018 22.6341 81.3861 22.6341 78.6634V64.4935C24.7522 64.392 26.4434 62.637 26.4434 60.4944V58.689H26.5257C31.7004 58.689 35.9099 54.4794 35.9099 49.3048V38.8081H37.9888C39.0044 38.8081 39.8307 37.9817 39.8307 36.9655V33.7377C39.8307 31.1351 37.7134 29.0177 35.1108 29.0177H31.867V16.4713C31.867 14.0393 29.8883 12.0607 27.4563 12.0607C25.0243 12.0607 23.045 14.0393 23.045 16.4713V29.0177H18.8248V16.4713C18.8248 14.0393 16.8462 12.0607 14.4135 12.0607C11.9815 12.0607 10.0028 14.0393 10.0028 16.4713V29.0177H6.75904C4.15645 29.0177 2.03906 31.1351 2.03906 33.7377V36.9655C2.03906 37.9817 2.86544 38.8081 3.88165 38.8081H5.95988V49.3048C5.95988 54.4794 10.1701 58.689 15.3441 58.689H15.4264V60.4944C15.4264 62.637 17.1183 64.392 19.2357 64.4935V78.6634C19.2357 83.2606 22.976 87.0002 27.5731 87.0002C32.1697 87.0002 35.9099 83.2599 35.9099 78.6634V64.9396C35.9099 62.8016 37.649 61.0626 39.7869 61.0626C41.9249 61.0626 43.6639 62.8016 43.6639 64.9396V78.7072C43.6639 83.2798 47.3843 87.0002 51.9569 87.0002H72.6111C73.5496 87.0002 74.3103 86.2395 74.3103 85.301C74.3103 84.3624 73.5496 83.6018 72.6111 83.6018ZM26.4434 16.4713C26.4434 15.9131 26.8981 15.4591 27.4563 15.4591C28.0145 15.4591 28.4686 15.9131 28.4686 16.4713V29.0177H26.4434V16.4713ZM13.4013 16.4713C13.4013 15.9131 13.8553 15.4591 14.4135 15.4591C14.9717 15.4591 15.4264 15.9131 15.4264 16.4713V29.0177H13.4013V16.4713ZM9.35831 49.3048V38.8081H18.4591C19.3976 38.8081 20.1583 38.0468 20.1583 37.1089C20.1583 36.1703 19.3976 35.4097 18.4591 35.4097H5.4375V33.7377C5.4375 33.0089 6.03024 32.4161 6.75904 32.4161H35.1114C35.8396 32.4161 36.4323 33.0089 36.4323 33.7377V35.4097H32.0528C31.1143 35.4097 30.3536 36.1703 30.3536 37.1089C30.3536 38.0468 31.1143 38.8081 32.0528 38.8081H32.5115V49.3048C32.5115 52.6056 29.8266 55.2905 26.5257 55.2905H15.3441C12.0439 55.2905 9.35831 52.6056 9.35831 49.3048ZM18.8248 60.4944V58.689H23.045V60.4944C23.045 60.8282 22.7735 61.0997 22.4403 61.0997H19.4295C19.0963 61.0991 18.8248 60.8282 18.8248 60.4944Z" fill="#0CA348"/>
<path d="M25.2559 38.8079H25.2598C26.1984 38.8079 26.9571 38.0465 26.9571 37.1086C26.9571 36.1701 26.1944 35.4094 25.2559 35.4094C24.3173 35.4094 23.5566 36.1701 23.5566 37.1086C23.5566 38.0465 24.3173 38.8079 25.2559 38.8079Z" fill="#0CA348"/>
</g>
<defs>
<clipPath id="clip0">
<rect width="87" height="87" fill="white"/>
</clipPath>
</defs>
</svg>
