<svg width="87" height="87" viewBox="0 0 87 87" fill="none" xmlns="http://www.w3.org/2000/svg">
<path d="M15.4355 22.4516C17.835 22.4516 19.6452 19.436 19.6452 15.4354C19.6452 11.4348 17.835 8.41931 15.4355 8.41931C13.036 8.41931 11.2258 11.4348 11.2258 15.4354C11.2258 19.436 13.036 22.4516 15.4355 22.4516ZM15.4355 11.2258C15.7849 11.2258 16.8387 12.7188 16.8387 15.4354C16.8387 18.1521 15.7849 19.6451 15.4355 19.6451C15.0861 19.6451 14.0323 18.1521 14.0323 15.4354C14.0323 12.7188 15.0861 11.2258 15.4355 11.2258Z" fill="#0CA348"/>
<path d="M71.5645 0H15.4355C9.92783 0 5.61292 6.78039 5.61292 15.4355V47.7097C5.61292 50.8096 8.12592 53.3226 11.2258 53.3226C12.214 53.3168 13.1828 53.0474 14.0323 52.5424V56.129C14.0323 59.2289 16.5453 61.7419 19.6452 61.7419C22.7451 61.7419 25.2581 59.2289 25.2581 56.129V46.9295C26.1076 47.4345 27.0763 47.7039 28.0645 47.7097C31.1644 47.7097 33.6774 45.1967 33.6774 42.0968V30.871H71.5645C74.3401 30.871 76.8112 29.1464 78.5807 26.3301V29.4677C78.5807 32.5676 76.0677 35.0806 72.9678 35.0806H50.5161C46.4122 35.0882 42.9105 38.0509 42.2231 42.0968H40.6936C39.9186 42.0968 39.2903 42.7251 39.2903 43.5V47.7097H37.8871C37.1122 47.7097 36.4839 48.338 36.4839 49.1129V85.5968C36.4839 86.3717 37.1122 87 37.8871 87H49.1129C49.8878 87 50.5161 86.3717 50.5161 85.5968V49.1129C50.5161 48.338 49.8878 47.7097 49.1129 47.7097H47.7097V43.5C47.7097 42.7251 47.0814 42.0968 46.3065 42.0968H45.1025C45.7404 39.626 47.9646 37.8967 50.5161 37.8871H72.9678C77.6158 37.8825 81.3826 34.1158 81.3871 29.4677V15.4355C81.3871 6.78039 77.0722 0 71.5645 0ZM42.0968 44.9032H44.9032V47.7097H42.0968V44.9032ZM47.7097 50.5161V84.1936H39.2903V50.5161H47.7097ZM15.4355 2.80645C19.2382 2.80645 22.4516 8.58914 22.4516 15.4355C22.4516 22.2818 19.2382 28.0645 15.4355 28.0645C11.6328 28.0645 8.41937 22.2818 8.41937 15.4355C8.41937 8.58914 11.6328 2.80645 15.4355 2.80645ZM30.871 42.0968C30.871 43.6468 29.6146 44.9032 28.0645 44.9032C26.5145 44.9032 25.2581 43.6468 25.2581 42.0968V37.8871H22.4516V56.129C22.4516 57.6791 21.1952 58.9355 19.6452 58.9355C18.0951 58.9355 16.8387 57.6791 16.8387 56.129V44.9032H14.0323V47.7097C14.0323 49.2597 12.7759 50.5161 11.2258 50.5161C9.67578 50.5161 8.41937 49.2597 8.41937 47.7097V26.3301C10.1888 29.1464 12.6599 30.871 15.4355 30.871H30.871V42.0968ZM71.5645 28.0645H21.1396C23.9825 24.4849 25.4442 20.0028 25.2581 15.4355C25.4442 10.8682 23.9825 6.38608 21.1396 2.80645H71.5645C75.3673 2.80645 78.5807 8.58914 78.5807 15.4355C78.5807 22.2818 75.3673 28.0645 71.5645 28.0645Z" fill="#0CA348"/>
<path d="M44.9033 78.5807H42.0968V81.3871H44.9033V78.5807Z" fill="#0CA348"/>
</svg>
