<svg width="87" height="87" viewBox="0 0 87 87" fill="none" xmlns="http://www.w3.org/2000/svg">
<g clip-path="url(#clip0)">
<path d="M85.5497 0H1.45031C0.649155 0 0 0.649155 0 1.45031V49.2999C0 50.1011 0.649155 50.7502 1.45031 50.7502H26.1003V85.5497C26.1003 86.3508 26.7494 87 27.5499 87H85.5497C86.3508 87 87 86.3508 87 85.5497V1.45031C87 0.649155 86.3508 0 85.5497 0V0ZM84.1 84.1H29.0002V49.2999C29.0002 48.4994 28.3511 47.8503 27.5499 47.8503H2.89996V2.89996H84.1V84.1Z" fill="#4B3194"/>
<path d="M7.25011 44.9502H27.5498C28.351 44.9502 29.0001 44.3004 29.0001 43.4999V34.8H31.9001V43.4999C31.9001 44.3004 32.5492 44.9502 33.3497 44.9502H52.1998V47.8502H33.3497C32.5492 47.8502 31.9001 48.4993 31.9001 49.2998V79.7497C31.9001 80.5508 32.5492 81.2 33.3497 81.2H54.9822C55.0373 81.2146 55.0937 81.2259 55.1508 81.2338H55.1568L63.7671 81.2H79.7497C80.5508 81.2 81.2 80.5508 81.2 79.7497V49.2998C81.2 48.4993 80.5508 47.8502 79.7497 47.8502H73.9498V44.9502H79.7497C80.5508 44.9502 81.2 44.3004 81.2 43.4999V7.25011C81.2 6.44896 80.5508 5.7998 79.7497 5.7998H33.3497C32.5492 5.7998 31.9001 6.44896 31.9001 7.25011V13.05H29.0001V7.25011C29.0001 6.44896 28.351 5.7998 27.5498 5.7998H7.25011C6.44896 5.7998 5.7998 6.44896 5.7998 7.25011V43.4999C5.7998 44.3004 6.44896 44.9502 7.25011 44.9502ZM34.8 56.55H40.5999V72.5001H34.8V56.55ZM56.5062 59.444L71.0067 59.3863L71.0604 71.0213L63.8168 71.0498L56.56 71.079L56.5062 59.444ZM65.2791 73.9445L71.0744 73.9219L71.0936 78.2708L65.295 78.2941L65.2791 73.9445ZM56.5746 73.9783L62.3791 73.9557L62.3951 78.3H56.5932L56.5746 73.9783ZM50.7501 14.4997H53.6501V20.2996H50.7501V14.4997ZM56.55 14.4997H65.2499V18.8499H56.55V14.4997ZM68.1499 14.4997H71.0498V20.2996H68.1499V14.4997ZM72.5001 8.69976V11.5997H49.2998V8.69976H72.5001ZM26.1002 8.69976V14.4997C26.1002 15.3008 26.7493 15.95 27.5498 15.95H32.6528L43.8178 29.9055C44.3176 30.5307 45.2303 30.633 45.8562 30.1325C46.4815 29.6327 46.583 28.72 46.0832 28.0941L34.8 13.9906V8.69976H46.3999V13.05C46.3999 13.8505 47.049 14.4997 47.8502 14.4997V21.7499C47.8502 22.5504 48.4993 23.2002 49.2998 23.2002H55.0997C55.9009 23.2002 56.55 22.5504 56.55 21.7499H65.2499C65.2499 22.5504 65.8991 23.2002 66.7002 23.2002H72.5001C73.3006 23.2002 73.9498 22.5504 73.9498 21.7499V14.4997C74.7509 14.4997 75.4001 13.8505 75.4001 13.05V8.69976H78.3V42.0496H72.9568L58.8314 32.1616C58.1749 31.7162 57.2828 31.8802 56.8281 32.53C56.3735 33.1798 56.5255 34.0745 57.1687 34.5378L71.0498 44.2546V49.2998C71.0498 50.101 71.699 50.7501 72.5001 50.7501H78.3V78.3H73.9942L73.967 72.4882C73.967 72.4782 73.9723 72.4702 73.9723 72.4603C73.9723 72.4503 73.967 72.4424 73.967 72.4324L73.8987 57.924C73.8947 57.1262 73.2468 56.4817 72.449 56.481H72.443L55.0433 56.55C54.6583 56.5514 54.2899 56.706 54.0191 56.9788C53.7483 57.2523 53.597 57.622 53.599 58.007L53.6932 78.3H34.8V75.4001H42.0496C42.8507 75.4001 43.4999 74.7509 43.4999 73.9498V55.0997C43.4999 54.2992 42.8507 53.6501 42.0496 53.6501H34.8V50.7501H53.6501C54.4506 50.7501 55.0997 50.101 55.0997 49.2998V43.4999C55.0997 42.6994 54.4506 42.0496 53.6501 42.0496H34.8V33.3497C34.8 32.5492 34.1509 31.9001 33.3497 31.9001H27.5498C26.7493 31.9001 26.1002 32.5492 26.1002 33.3497V42.0496H8.69976V39.1496H15.95C16.7505 39.1496 17.3996 38.5005 17.3996 37.7V13.05C17.3996 12.2489 16.7505 11.5997 15.95 11.5997H8.69976V8.69976H26.1002ZM8.69976 14.4997H14.4997V36.2497H8.69976V14.4997Z" fill="#4B3194"/>
</g>
<defs>
<clipPath id="clip0">
<rect width="87" height="87" fill="white"/>
</clipPath>
</defs>
</svg>
