<svg width="87" height="87" viewBox="0 0 87 87" fill="none" xmlns="http://www.w3.org/2000/svg">
<g clip-path="url(#clip0)">
<path d="M79.7498 0H7.25022C3.24776 0.00464631 0.00464631 3.24776 0 7.25022V59.4501C0.00464631 63.4519 3.24776 66.695 7.25022 66.7003H34.301L30.8209 78.3001H29.0002C26.5974 78.3001 24.65 80.2476 24.65 82.6497C24.65 85.0525 26.5974 87 29.0002 87H57.9998C60.4026 87 62.35 85.0525 62.35 82.6497C62.35 80.2476 60.4026 78.3001 57.9998 78.3001H56.1791L52.699 66.7003H79.7498C83.7522 66.695 86.9954 63.4519 87 59.4501V7.25022C86.9954 3.24776 83.7522 0.00464631 79.7498 0V0ZM7.25022 2.89996H79.7498C82.1513 2.90261 84.0974 4.84875 84.1 7.25022V53.6502H2.89996V7.25022C2.90261 4.84875 4.84875 2.90261 7.25022 2.89996ZM59.4501 82.6497C59.4494 83.4502 58.8003 84.0994 57.9998 84.1H29.0002C28.1991 84.1 27.5499 83.4509 27.5499 82.6497C27.5499 81.8492 28.1991 81.2001 29.0002 81.2001H57.9998C58.8003 81.2008 59.4494 81.8492 59.4501 82.6497ZM53.1517 78.3001H33.8483L37.3284 66.7003H49.671L53.1517 78.3001ZM79.7498 63.7997H44.9503V60.8997C44.9503 60.0992 44.3005 59.4501 43.5 59.4501C42.6995 59.4501 42.0497 60.0992 42.0497 60.8997V63.7997H7.25022C4.84875 63.797 2.90261 61.8516 2.89996 59.4501V56.5501H84.1V59.4501C84.0974 61.8516 82.1513 63.797 79.7498 63.7997Z" fill="#FF6666"/>
<path d="M20.2996 47.8502H36.2497C38.6512 47.8476 40.5973 45.9014 40.6 43.5V13.0501C40.5973 10.6486 38.6512 8.70248 36.2497 8.69983H20.2996C18.6993 8.70182 17.4016 9.9988 17.3997 11.5998V15.9501C17.4016 17.551 18.6993 18.848 20.2996 18.85H30.4498V23.2003H24.6499C23.0489 23.2016 21.7519 24.4992 21.7499 26.1002V30.4498C21.7519 32.0508 23.0489 33.3478 24.6499 33.3498H30.4498V37.7001H20.2996C18.6993 37.702 17.4016 38.999 17.3997 40.6V44.9503C17.4016 46.5506 18.6993 47.8482 20.2996 47.8502ZM20.2996 40.6H30.4498C32.0508 40.598 33.3478 39.301 33.3497 37.7001V33.3498C33.3478 31.7488 32.0508 30.4518 30.4498 30.4498H24.6499V26.1002H30.4498C32.0508 26.0982 33.3478 24.8006 33.3497 23.2003V18.85C33.3478 17.249 32.0508 15.952 30.4498 15.9501H20.2996V11.5998H36.2497C37.0502 11.6004 37.6993 12.2496 37.7 13.0501V43.5C37.6993 44.3005 37.0502 44.9489 36.2497 44.9503H20.2996L20.2983 40.6H20.2996Z" fill="#FF6666"/>
<path d="M47.8502 47.8502H56.55C62.9533 47.8429 68.1425 42.6537 68.1498 36.2497V20.2997C68.1425 13.8964 62.9533 8.70713 56.55 8.69983H47.8502C46.2492 8.70182 44.9515 9.9988 44.9502 11.5998V44.9503C44.9515 46.5506 46.2492 47.8482 47.8502 47.8502ZM47.8502 11.5998H56.55C61.3523 11.6051 65.2446 15.4974 65.2499 20.2997V36.2497C65.2446 41.0527 61.3523 44.945 56.55 44.9503H47.8502V11.5998Z" fill="#FF6666"/>
<path d="M60.8998 33.3498V23.2003C60.8952 19.1978 57.6521 15.9547 53.6503 15.9501C52.8491 15.9501 52.2 16.5992 52.2 17.3997V39.1497C52.2 39.9509 52.8491 40.6 53.6503 40.6C57.6521 40.5954 60.8952 37.3523 60.8998 33.3498ZM57.9999 33.3498C57.9979 35.1931 56.837 36.8352 55.0999 37.4512V19.0983C56.837 19.7149 57.9979 21.357 57.9999 23.2003V33.3498Z" fill="#FF6666"/>
</g>
<defs>
<clipPath id="clip0">
<rect width="87" height="87" fill="white"/>
</clipPath>
</defs>
</svg>
