<svg width="87" height="77" viewBox="0 0 87 77" fill="none" xmlns="http://www.w3.org/2000/svg">
<path d="M75.4002 0.0976562C68.9962 0.104958 63.8077 5.29421 63.7997 11.6975V16.0477H4.35027C1.94879 16.0504 0.00265503 17.9965 0 20.3973V72.5979C0.00265503 74.9987 1.94879 76.9448 4.35027 76.9475H75.4002C81.8034 76.9402 86.9927 71.7509 87 65.3477V11.6975C86.9927 5.29421 81.8034 0.104958 75.4002 0.0976562ZM75.4002 74.0475H4.35027C3.54977 74.0469 2.90128 73.3984 2.89996 72.5979V20.3973C2.90128 19.5975 3.54977 18.9484 4.35027 18.9477H63.7997V65.3477C63.7997 66.1481 64.4495 66.798 65.25 66.798C66.0505 66.798 66.7003 66.1481 66.7003 65.3477C66.7003 61.8291 68.8197 58.6563 72.0708 57.3102C75.3219 55.9635 79.0635 56.7075 81.5519 59.196C84.0403 61.6837 84.7844 65.426 83.4376 68.6771C82.0909 71.9281 78.9188 74.0475 75.4002 74.0475ZM84.1 57.7005C81.9063 55.1889 78.7349 53.7478 75.4002 53.7478C72.0655 53.7478 68.8934 55.1889 66.7003 57.7005V11.6975C66.7003 6.89254 70.5952 2.99761 75.4002 2.99761C80.2051 2.99761 84.1 6.89254 84.1 11.6975V57.7005Z" fill="#3A89FF"/>
</svg>
