<svg width="87" height="87" viewBox="0 0 87 87" fill="none" xmlns="http://www.w3.org/2000/svg">
<path d="M14.7139 58.97C14.7139 60.0796 15.3263 61.0986 16.3062 61.6192L42.1975 75.377C43.0776 75.8447 44.1326 75.8447 45.0128 75.3771L70.9076 61.6192C71.8875 61.0985 72.5 60.0795 72.5 58.9699V28.0301C72.5 26.9205 71.8875 25.9014 70.9076 25.3808L45.0128 11.6229C44.1326 11.1553 43.0776 11.1553 42.1975 11.623L16.3062 25.3808C15.3263 25.9014 14.7139 26.9204 14.7139 28.03V58.97Z" stroke="#3A89FF" stroke-width="4.25" stroke-linecap="round"/>
<path d="M43.6055 76.1252V41.5826M14.7139 26.2271L43.6051 41.5826L72.5 26.2271H14.7139Z" stroke="#3A89FF" stroke-width="4.25" stroke-linecap="round"/>
</svg>
