<svg width="87" height="87" viewBox="0 0 87 87" fill="none" xmlns="http://www.w3.org/2000/svg">
<path d="M19.7871 48.449C18.9022 47.7586 18.6547 46.4933 19.2983 45.5739L41.8615 13.3407C42.6577 12.2032 44.3423 12.2032 45.1385 13.3407L67.7017 45.5739C68.3453 46.4933 68.0978 47.7586 67.2129 48.449C60.5544 53.6451 58.7082 60.1716 58.1964 63.3914C58.0229 64.4822 57.1046 65.375 56 65.375H31C29.8954 65.375 28.9771 64.4822 28.8036 63.3914C28.2918 60.1716 26.4456 53.6451 19.7871 48.449ZM29 67.375C29 66.2704 29.8954 65.375 31 65.375H56C57.1046 65.375 58 66.2704 58 67.375V74.25C58 75.3546 57.1046 76.25 56 76.25H31C29.8954 76.25 29 75.3546 29 74.25V67.375Z" stroke="#3A89FF" stroke-width="4.25"/>
<path d="M43.5 10.875V39.875" stroke="#3A89FF" stroke-width="4.25" stroke-linecap="round"/>
<path d="M43.5 54.375C47.5041 54.375 50.75 51.1291 50.75 47.125C50.75 43.1209 47.5041 39.875 43.5 39.875C39.4959 39.875 36.25 43.1209 36.25 47.125C36.25 51.1291 39.4959 54.375 43.5 54.375Z" stroke="#3A89FF" stroke-width="4.25"/>
</svg>
