<svg width="87" height="87" viewBox="0 0 87 87" fill="none" xmlns="http://www.w3.org/2000/svg">
<g clip-path="url(#clip0)">
<path d="M82.6497 27.5725H73.9499C71.5484 27.5751 69.6029 29.5213 69.6003 31.9227V53.6727H52.1999V26.1228C52.1932 20.5194 47.6531 15.9793 42.0497 15.9727H10.1502C4.54674 15.9793 0.00663757 20.5194 0 26.1228V60.923C0.00663757 66.5257 4.54674 71.0665 10.1502 71.0725H71.0499C71.4349 71.0705 71.8033 70.9178 72.0761 70.647L86.5739 56.1492C86.8447 55.8758 86.998 55.5074 87 55.1224V31.9227C86.9973 29.5213 85.0512 27.5751 82.6497 27.5725ZM72.5002 53.6727H75.4002C76.2007 53.6727 76.8498 53.0236 76.8498 52.2224C76.8498 51.4219 76.2007 50.7728 75.4002 50.7728H72.5002V47.8728H78.3001C79.1006 47.8728 79.7498 47.2237 79.7498 46.4225C79.7498 45.622 79.1006 44.9729 78.3001 44.9729H72.5002V42.0729H75.4002C76.2007 42.0729 76.8498 41.4238 76.8498 40.6226C76.8498 39.8221 76.2007 39.173 75.4002 39.173H72.5002V36.2723H84.1V54.5224L72.5002 66.1222V53.6727ZM73.9499 30.4724H82.6497C83.4502 30.4731 84.0994 31.1223 84.1 31.9227V33.3724H72.5002V31.9227C72.5009 31.1223 73.1494 30.4731 73.9499 30.4724ZM2.89996 60.923V26.1228C2.9046 22.1204 6.14772 18.8773 10.1502 18.8726H42.0497C46.0521 18.8773 49.2953 22.1204 49.2999 26.1228V68.1725H10.1502C6.14772 68.1679 2.9046 64.9248 2.89996 60.923ZM52.1999 56.5727H69.6003V68.1725H63.7997V65.2726C63.7997 64.4721 63.1505 63.8229 62.35 63.8229C61.5489 63.8229 60.8997 64.4721 60.8997 65.2726V68.1725H57.9998V63.8229C57.9998 63.0218 57.3506 62.3726 56.5501 62.3726C55.749 62.3726 55.0998 63.0218 55.0998 63.8229V68.1725H52.1999V56.5727Z" fill="#4B3194"/>
<path d="M26.1001 29.0228C18.0918 29.0228 11.5996 35.5144 11.5996 43.5226C11.5996 51.5308 18.0918 58.0224 26.1001 58.0224C34.1076 58.0224 40.5998 51.5308 40.5998 43.5226C40.5905 35.5184 34.1043 29.0321 26.1001 29.0228ZM26.1001 55.1224C19.6935 55.1224 14.4996 49.9292 14.4996 43.5226C14.4996 37.116 19.6935 31.9228 26.1001 31.9228C32.506 31.9228 37.6999 37.116 37.6999 43.5226C37.6926 49.9259 32.5033 55.1151 26.1001 55.1224Z" fill="#4B3194"/>
</g>
<defs>
<clipPath id="clip0">
<rect width="87" height="87" fill="white"/>
</clipPath>
</defs>
</svg>
