<svg width="87" height="87" viewBox="0 0 87 87" fill="none" xmlns="http://www.w3.org/2000/svg">
<path d="M71.0502 8.7H69.6002V7.25C69.5952 3.24763 66.3526 0.00495606 62.3502 0H15.9502C11.9478 0.00495606 8.70515 3.24763 8.7002 7.25V71.05C8.70515 75.0524 11.9478 78.295 15.9502 78.3H17.4002V79.75C17.4052 83.7524 20.6478 86.995 24.6502 87H71.0502C75.0526 86.995 78.2952 83.7524 78.3002 79.75V15.95C78.2952 11.9476 75.0526 8.70496 71.0502 8.7ZM58.0002 2.9V9.54961L56.1254 7.67481C55.559 7.10911 54.6414 7.10911 54.075 7.67481L52.2002 9.54961V2.9H58.0002ZM11.6002 71.05V7.25C11.6002 4.84773 13.5479 2.9 15.9502 2.9H49.3002V13.05C49.3002 13.6362 49.6535 14.1651 50.1951 14.3896C50.7367 14.614 51.3605 14.4894 51.7754 14.0752L55.1002 10.7504L58.425 14.0752C58.8399 14.4894 59.4636 14.614 60.0053 14.3896C60.5469 14.1651 60.9002 13.6362 60.9002 13.05V2.9H62.3502C64.7525 2.9 66.7002 4.84773 66.7002 7.25V71.05C66.7002 73.4523 64.7525 75.4 62.3502 75.4H15.9502C13.5479 75.4 11.6002 73.4523 11.6002 71.05ZM75.4002 79.75C75.4002 82.1523 73.4525 84.1 71.0502 84.1H24.6502C22.2479 84.1 20.3002 82.1523 20.3002 79.75V78.3H62.3502C66.3526 78.295 69.5952 75.0524 69.6002 71.05V11.6H71.0502C73.4525 11.6 75.4002 13.5477 75.4002 15.95V79.75Z" fill="#0CA348"/>
<path d="M31.8001 13.9995C31.5912 13.4331 31.0538 13.0543 30.4499 13.0501H18.8499C18.0491 13.0501 17.3999 13.6993 17.3999 14.5001V26.1001C17.3999 26.9009 18.0491 27.5501 18.8499 27.5501H30.4499C31.2507 27.5501 31.8999 26.9009 31.8999 26.1001V18.0005L35.8251 14.0753L33.7747 12.0249L31.8001 13.9995ZM28.9999 24.6501H20.2999V15.9501H28.9999V16.7997L26.0999 19.6997L24.2251 17.8249L22.1747 19.8753L25.0747 22.7753C25.6411 23.341 26.5587 23.341 27.1251 22.7753L28.9999 20.9005V24.6501Z" fill="#0CA348"/>
<path d="M33.7747 32.3247L31.8001 34.2993C31.5912 33.7329 31.0538 33.3542 30.4499 33.3499H18.8499C18.0491 33.3499 17.3999 33.9991 17.3999 34.7999V46.3999C17.3999 47.2007 18.0491 47.8499 18.8499 47.8499H30.4499C31.2507 47.8499 31.8999 47.2007 31.8999 46.3999V38.3003L35.8251 34.3751L33.7747 32.3247ZM28.9999 44.9499H20.2999V36.2499H28.9999V37.0995L26.0999 39.9995L24.2251 38.1247L22.1747 40.1751L25.0747 43.0751C25.6411 43.6408 26.5587 43.6408 27.1251 43.0751L28.9999 41.2003V44.9499Z" fill="#0CA348"/>
<path d="M30.4499 52.2002H18.8499C18.0491 52.2002 17.3999 52.8494 17.3999 53.6502V65.2502C17.3999 66.0509 18.0491 66.7002 18.8499 66.7002H30.4499C31.2507 66.7002 31.8999 66.0509 31.8999 65.2502V53.6502C31.8999 52.8494 31.2507 52.2002 30.4499 52.2002ZM28.9999 63.8002H20.2999V55.1002H28.9999V63.8002Z" fill="#0CA348"/>
<path d="M37.7002 21.75H52.2002V24.65H37.7002V21.75Z" fill="#0CA348"/>
<path d="M37.7002 15.9502H46.4002V18.8502H37.7002V15.9502Z" fill="#0CA348"/>
<path d="M37.7002 42.0498H52.2002V44.9498H37.7002V42.0498Z" fill="#0CA348"/>
<path d="M37.7002 36.25H46.4002V39.15H37.7002V36.25Z" fill="#0CA348"/>
<path d="M37.7002 60.8999H52.2002V63.7999H37.7002V60.8999Z" fill="#0CA348"/>
<path d="M37.7002 55.1001H46.4002V58.0001H37.7002V55.1001Z" fill="#0CA348"/>
<path d="M49.2998 55.1001H52.1998V58.0001H49.2998V55.1001Z" fill="#0CA348"/>
</svg>
