<svg width="87" height="87" viewBox="0 0 87 87" fill="none" xmlns="http://www.w3.org/2000/svg">
<g clip-path="url(#clip0)">
<path d="M85.5497 0H1.45031C0.649155 0 0 0.649155 0 1.45031V49.2999C0 50.1011 0.649155 50.7502 1.45031 50.7502H26.1003V85.5497C26.1003 86.3508 26.7494 87 27.5499 87H85.5497C86.3508 87 87 86.3508 87 85.5497V1.45031C87 0.649155 86.3508 0 85.5497 0V0ZM84.1 84.1H29.0002V49.2999C29.0002 48.4994 28.3511 47.8503 27.5499 47.8503H2.89996V2.89996H84.1V84.1Z" fill="#FF753A"/>
<path d="M7.25021 44.9504H27.5499C28.3511 44.9504 29.0002 44.3006 29.0002 43.5001V34.8003H31.9002V43.5001C31.9002 44.3006 32.5493 44.9504 33.3498 44.9504H52.1999V47.8504H33.3498C32.5493 47.8504 31.9002 48.4996 31.9002 49.3V79.7499C31.9002 80.5511 32.5493 81.2002 33.3498 81.2002H54.9823C55.0374 81.2148 55.0938 81.2261 55.1509 81.2341H55.1569L63.7672 81.2002H79.7498C80.5509 81.2002 81.2001 80.5511 81.2001 79.7499V49.3C81.2001 48.4996 80.5509 47.8504 79.7498 47.8504H73.9499V44.9504H79.7498C80.5509 44.9504 81.2001 44.3006 81.2001 43.5001V7.25036C81.2001 6.4492 80.5509 5.80005 79.7498 5.80005H33.3498C32.5493 5.80005 31.9002 6.4492 31.9002 7.25036V13.0503H29.0002V7.25036C29.0002 6.4492 28.3511 5.80005 27.5499 5.80005H7.25021C6.44905 5.80005 5.7999 6.4492 5.7999 7.25036V43.5001C5.7999 44.3006 6.44905 44.9504 7.25021 44.9504ZM34.8001 56.5503H40.6V72.5004H34.8001V56.5503ZM56.5063 59.4443L71.0068 59.3865L71.0605 71.0215L63.8169 71.05L56.5601 71.0793L56.5063 59.4443ZM65.2792 73.9447L71.0745 73.9221L71.0937 78.2711L65.2951 78.2943L65.2792 73.9447ZM56.5747 73.9785L62.3792 73.956L62.3952 78.3003H56.5933L56.5747 73.9785ZM50.7502 14.4999H53.6502V20.2998H50.7502V14.4999ZM56.5501 14.4999H65.25V18.8502H56.5501V14.4999ZM68.1499 14.4999H71.0499V20.2998H68.1499V14.4999ZM72.5002 8.7V11.6H49.2999V8.7H72.5002ZM26.1003 8.7V14.4999C26.1003 15.3011 26.7494 15.9502 27.5499 15.9502H32.6529L43.8179 29.9057C44.3177 30.531 45.2304 30.6332 45.8563 30.1327C46.4816 29.6329 46.5831 28.7203 46.0833 28.0943L34.8001 13.9908V8.7H46.3999V13.0503C46.3999 13.8508 47.0491 14.4999 47.8503 14.4999V21.7501C47.8503 22.5506 48.4994 23.2004 49.2999 23.2004H55.0998C55.901 23.2004 56.5501 22.5506 56.5501 21.7501H65.25C65.25 22.5506 65.8991 23.2004 66.7003 23.2004H72.5002C73.3007 23.2004 73.9499 22.5506 73.9499 21.7501V14.4999C74.751 14.4999 75.4002 13.8508 75.4002 13.0503V8.7H78.3001V42.0498H72.9569L58.8315 32.1618C58.175 31.7165 57.2829 31.8804 56.8282 32.5302C56.3736 33.18 56.5256 34.0748 57.1687 34.5381L71.0499 44.2548V49.3C71.0499 50.1012 71.6991 50.7504 72.5002 50.7504H78.3001V78.3003H73.9943L73.9671 72.4884C73.9671 72.4785 73.9724 72.4705 73.9724 72.4605C73.9724 72.4506 73.9671 72.4426 73.9671 72.4327L73.8988 57.9242C73.8948 57.1264 73.2469 56.4819 72.4491 56.4812H72.4431L55.0434 56.5503C54.6584 56.5516 54.29 56.7063 54.0192 56.9791C53.7484 57.2525 53.5971 57.6222 53.5991 58.0072L53.6933 78.3003H34.8001V75.4003H42.0497C42.8508 75.4003 43.5 74.7512 43.5 73.95V55.1C43.5 54.2995 42.8508 53.6503 42.0497 53.6503H34.8001V50.7504H53.6502C54.4507 50.7504 55.0998 50.1012 55.0998 49.3V43.5001C55.0998 42.6996 54.4507 42.0498 53.6502 42.0498H34.8001V33.35C34.8001 32.5495 34.151 31.9003 33.3498 31.9003H27.5499C26.7494 31.9003 26.1003 32.5495 26.1003 33.35V42.0498H8.69985V39.1499H15.9501C16.7506 39.1499 17.3997 38.5007 17.3997 37.7002V13.0503C17.3997 12.2491 16.7506 11.6 15.9501 11.6H8.69985V8.7H26.1003ZM8.69985 14.4999H14.4998V36.2499H8.69985V14.4999Z" fill="#FF753A"/>
</g>
<defs>
<clipPath id="clip0">
<rect width="87" height="87" fill="white"/>
</clipPath>
</defs>
</svg>
