<svg width="87" height="87" viewBox="0 0 87 87" fill="none" xmlns="http://www.w3.org/2000/svg">
<g clip-path="url(#clip0)">
<path d="M75.4002 5.09766C68.9962 5.10496 63.8077 10.2942 63.7997 16.6975V21.0477H4.35027C1.94879 21.0504 0.00265503 22.9965 0 25.3973V77.5979C0.00265503 79.9987 1.94879 81.9448 4.35027 81.9475H75.4002C81.8034 81.9402 86.9927 76.7509 87 70.3477V16.6975C86.9927 10.2942 81.8034 5.10496 75.4002 5.09766ZM75.4002 79.0475H4.35027C3.54977 79.0469 2.90128 78.3984 2.89996 77.5979V25.3973C2.90128 24.5975 3.54977 23.9484 4.35027 23.9477H63.7997V70.3477C63.7997 71.1481 64.4495 71.798 65.25 71.798C66.0505 71.798 66.7003 71.1481 66.7003 70.3477C66.7003 66.8291 68.8197 63.6563 72.0708 62.3102C75.3219 60.9635 79.0635 61.7075 81.5519 64.196C84.0403 66.6837 84.7844 70.426 83.4376 73.6771C82.0909 76.9281 78.9188 79.0475 75.4002 79.0475ZM84.1 62.7005C81.9063 60.1889 78.7349 58.7478 75.4002 58.7478C72.0655 58.7478 68.8934 60.1889 66.7003 62.7005V16.6975C66.7003 11.8925 70.5952 7.99761 75.4002 7.99761C80.2051 7.99761 84.1 11.8925 84.1 16.6975V62.7005Z" fill="#FF753A"/>
<path d="M59.4501 26.8477H7.25024C6.44908 26.8477 5.79993 27.4968 5.79993 28.298V74.6979C5.79993 75.4984 6.44908 76.1476 7.25024 76.1476H59.4501C60.2506 76.1476 60.8997 75.4984 60.8997 74.6979V57.2975C60.8997 56.497 60.2506 55.8479 59.4501 55.8479H46.4C45.5995 55.8479 44.9503 56.497 44.9503 57.2975C44.9503 58.0987 45.5995 58.7478 46.4 58.7478H57.9998V73.2476H36.2498V58.7478H37.0994L42.4752 64.1229C43.044 64.6725 43.9481 64.6646 44.5076 64.105C45.0671 63.5461 45.0744 62.6414 44.5249 62.0726L38.7249 56.2727C38.4521 56.0025 38.0844 55.8499 37.7001 55.8479H34.8001C34.769 55.8479 34.7417 55.8631 34.7119 55.8658C34.5798 55.8738 34.4503 55.8997 34.3256 55.9435C34.2804 55.9594 34.2353 55.9707 34.1921 55.9912C34.0382 56.0596 33.8981 56.1539 33.7773 56.2707L33.7746 56.2727L27.9747 62.0733C27.4251 62.6421 27.4331 63.5461 27.992 64.1057C28.5515 64.6646 29.4556 64.6725 30.0244 64.1229L33.3498 60.7982V73.2476H8.69988V58.7478H26.1003C26.9008 58.7478 27.5499 58.0987 27.5499 57.2975C27.5499 56.497 26.9008 55.8479 26.1003 55.8479H8.69988V47.1473H13.0501C13.8506 47.1473 14.4998 46.4982 14.4998 45.6977V35.5475H18.8501C19.6506 35.5475 20.2997 34.8984 20.2997 34.0979V29.7476H24.65V34.0979C24.65 34.1251 24.6646 34.1477 24.6652 34.1749C24.7064 34.5512 24.875 34.903 25.1438 35.1698C25.1644 35.1878 25.173 35.213 25.1943 35.2296L32.4445 41.0295C33.0704 41.512 33.9671 41.4032 34.461 40.7866C34.9548 40.1693 34.8632 39.2705 34.2552 38.7654L27.5499 33.4016V29.7476H39.1497V34.0979C39.1497 34.8984 39.7989 35.5475 40.6001 35.5475H57.9998V44.2474H27.5499V42.7977C27.5499 41.9966 26.9008 41.3474 26.1003 41.3474C25.2991 41.3474 24.65 41.9966 24.65 42.7977V45.097L19.2749 50.4728C18.8979 50.8365 18.7465 51.3755 18.8793 51.8826C19.012 52.3897 19.4083 52.7853 19.9147 52.9181C20.4218 53.0508 20.9608 52.8995 21.3252 52.5231L26.7003 47.1473H55.9494L52.6247 50.4728C52.2477 50.8365 52.097 51.3755 52.2298 51.8826C52.3618 52.3897 52.7581 52.7853 53.2652 52.9181C53.7723 53.0508 54.3113 52.8995 54.675 52.5231L60.4749 46.7225L60.4776 46.7199C60.5938 46.5997 60.688 46.459 60.7564 46.3064C60.775 46.2612 60.7909 46.2161 60.8048 46.1696C60.848 46.0462 60.8745 45.9174 60.8825 45.7866C60.8838 45.7554 60.8997 45.7296 60.8997 45.6977V28.298C60.8997 27.4968 60.2506 26.8477 59.4501 26.8477ZM17.3997 32.6476H13.0501C12.249 32.6476 11.5998 33.2967 11.5998 34.0979V44.2474H8.69988V29.7476H17.3997V32.6476ZM42.0497 32.6476V29.7476H57.9998V32.6476H42.0497Z" fill="#FF753A"/>
</g>
<defs>
<clipPath id="clip0">
<rect width="87" height="87" fill="white"/>
</clipPath>
</defs>
</svg>
